<svg width="16" height="16" viewBox="0 0 16 16" fill="none" xmlns="http://www.w3.org/2000/svg">
<g clip-path="url(#clip0_864_6283)">
<path d="M8.12247 8.2159L6.76247 4.68028C6.74206 4.62722 6.70605 4.58159 6.65919 4.54941C6.61233 4.51723 6.55681 4.5 6.49997 4.5C6.44312 4.5 6.3876 4.51723 6.34074 4.54941C6.29388 4.58159 6.25787 4.62722 6.23747 4.68028L4.87747 8.2159C4.86334 8.25264 4.84166 8.286 4.81383 8.31383C4.786 8.34166 4.75264 8.36334 4.7159 8.37747L1.18028 9.73747C1.12722 9.75787 1.08159 9.79388 1.04941 9.84074C1.01723 9.8876 1 9.94312 1 9.99997C1 10.0568 1.01723 10.1123 1.04941 10.1592C1.08159 10.206 1.12722 10.2421 1.18028 10.2625L4.7159 11.6225C4.75264 11.6366 4.786 11.6583 4.81383 11.6861C4.84166 11.7139 4.86334 11.7473 4.87747 11.784L6.23747 15.3197C6.25787 15.3727 6.29388 15.4183 6.34074 15.4505C6.3876 15.4827 6.44312 15.4999 6.49997 15.4999C6.55681 15.4999 6.61233 15.4827 6.65919 15.4505C6.70605 15.4183 6.74206 15.3727 6.76247 15.3197L8.12247 11.784C8.13659 11.7473 8.15827 11.7139 8.1861 11.6861C8.21393 11.6583 8.24729 11.6366 8.28403 11.6225L11.8197 10.2625C11.8727 10.2421 11.9183 10.206 11.9505 10.1592C11.9827 10.1123 11.9999 10.0568 11.9999 9.99997C11.9999 9.94312 11.9827 9.8876 11.9505 9.84074C11.9183 9.79388 11.8727 9.75787 11.8197 9.73747L8.28403 8.37747C8.24729 8.36334 8.21393 8.34166 8.1861 8.31383C8.15827 8.286 8.13659 8.25264 8.12247 8.2159Z" stroke="#1E2022" stroke-width="1.2" stroke-linecap="round" stroke-linejoin="round"/>
<path d="M3.375 2.125L2.75 0.5L2.125 2.125L0.5 2.75L2.125 3.375L2.75 5L3.375 3.375L5 2.75L3.375 2.125Z" stroke="#1E2022" stroke-width="1.2" stroke-linecap="round" stroke-linejoin="round"/>
<path d="M13.3334 3.66656L12.5 1.5L11.6666 3.66656L9.5 4.5L11.6666 5.33344L12.5 7.5L13.3334 5.33344L15.5 4.5L13.3334 3.66656Z" stroke="#1E2022" stroke-width="1.2" stroke-linecap="round" stroke-linejoin="round"/>
</g>
<defs>
<clipPath id="clip0_864_6283">
<rect width="16" height="16" fill="white"/>
</clipPath>
</defs>
</svg>
