<svg width="16" height="12" viewBox="0 0 16 12" fill="none" xmlns="http://www.w3.org/2000/svg">
<path d="M7.18539 0.806743C7.18539 0.361904 7.53588 0 7.96665 0C8.39742 0 8.74788 0.361904 8.74788 0.806743C8.74788 1.25158 8.39742 1.61349 7.96665 1.61349C7.53588 1.61346 7.18539 1.25155 7.18539 0.806743ZM4.26319 5.53173C4.46975 5.53173 4.68761 5.51193 4.91673 5.46859C5.8416 5.29366 6.56266 4.70394 7.05989 3.71586C7.40049 3.03901 7.55684 2.32269 7.62723 1.86203C7.73402 1.89874 7.84808 1.91893 7.96665 1.91893C8.08523 1.91893 8.19926 1.89874 8.30604 1.86203C8.37644 2.32269 8.53275 3.03895 8.87335 3.71586C9.37058 4.70397 10.0916 5.29366 11.0165 5.46859C11.2457 5.51199 11.4634 5.53176 11.6701 5.53176C13.1607 5.53176 14.0699 4.50283 14.48 3.8877C14.6168 4.00091 14.7808 4.08031 14.9602 4.11377C14.4834 5.4544 13.4025 9.91368 13.1806 10.4134C13.1724 10.4133 13.1638 10.4133 13.1548 10.4132C13.0764 10.4127 12.9618 10.4123 12.8161 10.4119C12.525 10.4112 12.1098 10.4108 11.6118 10.4105C10.616 10.4101 9.28923 10.4104 7.96283 10.411C5.69618 10.4121 3.43076 10.4142 2.81913 10.4148H2.7533C2.53283 9.91831 1.45038 5.45583 0.972843 4.11383C1.15233 4.08041 1.31646 4.001 1.45337 3.88773C1.86339 4.50283 2.77242 5.53173 4.26319 5.53173ZM0 3.01954C0 2.5747 0.350458 2.2128 0.781229 2.2128C1.212 2.2128 1.56246 2.5747 1.56246 3.01954C1.56246 3.46438 1.212 3.82628 0.781229 3.82628L0.778786 3.82622L0.77617 3.82616C0.347727 3.82331 0 3.46263 0 3.01954ZM13.1267 11.8253C13.1267 11.9217 13.0508 12 12.9576 12H2.97573C2.88245 12 2.8066 11.9216 2.8066 11.8253V10.7202C2.81002 10.7202 2.81338 10.7202 2.8168 10.7202H13.1267V11.8253ZM15.156 3.82619L15.1546 3.82622L15.1521 3.82628C14.7213 3.82628 14.3708 3.46438 14.3708 3.01954C14.3708 2.5747 14.7213 2.2128 15.1521 2.2128C15.5829 2.2128 15.9333 2.5747 15.9333 3.01954C15.9333 3.46305 15.585 3.824 15.156 3.82619Z" fill="white"/>
</svg>
