<svg xmlns="http://www.w3.org/2000/svg" width="18" height="18" viewBox="0 0 18 18" fill="none">
  <path d="M9 1C13.4184 1 17 4.5816 17 9C17 13.4184 13.4184 17 9 17C4.5816 17 1 13.4184 1 9C1 4.5816 4.5816 1 9 1ZM9 2.6C7.30261 2.6 5.67475 3.27428 4.47452 4.47452C3.27428 5.67475 2.6 7.30261 2.6 9C2.6 10.6974 3.27428 12.3253 4.47452 13.5255C5.67475 14.7257 7.30261 15.4 9 15.4C10.6974 15.4 12.3253 14.7257 13.5255 13.5255C14.7257 12.3253 15.4 10.6974 15.4 9C15.4 7.30261 14.7257 5.67475 13.5255 4.47452C12.3253 3.27428 10.6974 2.6 9 2.6ZM8.992 7.4C9.4384 7.4 9.8 7.7616 9.8 8.208V12.3072C9.9525 12.3953 10.0717 12.5312 10.1391 12.6939C10.2065 12.8566 10.2183 13.037 10.1727 13.2071C10.1271 13.3772 10.0267 13.5275 9.88699 13.6347C9.74728 13.7419 9.5761 13.8 9.4 13.8H9.008C8.90189 13.8 8.79682 13.7791 8.69879 13.7385C8.60076 13.6979 8.51169 13.6384 8.43666 13.5633C8.36163 13.4883 8.30211 13.3992 8.26151 13.3012C8.2209 13.2032 8.2 13.0981 8.2 12.992V9C7.98783 9 7.78434 8.91571 7.63432 8.76569C7.48429 8.61566 7.4 8.41217 7.4 8.2C7.4 7.98783 7.48429 7.78434 7.63432 7.63432C7.78434 7.48429 7.98783 7.4 8.2 7.4H8.992ZM9 5C9.21217 5 9.41566 5.08429 9.56569 5.23431C9.71571 5.38434 9.8 5.58783 9.8 5.8C9.8 6.01217 9.71571 6.21566 9.56569 6.36569C9.41566 6.51571 9.21217 6.6 9 6.6C8.78783 6.6 8.58434 6.51571 8.43431 6.36569C8.28429 6.21566 8.2 6.01217 8.2 5.8C8.2 5.58783 8.28429 5.38434 8.43431 5.23431C8.58434 5.08429 8.78783 5 9 5Z" fill="#1E2022"/>
</svg>