<svg width="18" height="18" viewBox="0 0 18 18" fill="none" xmlns="http://www.w3.org/2000/svg">
<path d="M16.5 2.25H1.5C1.30109 2.25 1.11032 2.32902 0.96967 2.46967C0.829018 2.61032 0.75 2.80109 0.75 3V15C0.75 15.1989 0.829018 15.3897 0.96967 15.5303C1.11032 15.671 1.30109 15.75 1.5 15.75H16.5C16.6989 15.75 16.8897 15.671 17.0303 15.5303C17.171 15.3897 17.25 15.1989 17.25 15V3C17.25 2.80109 17.171 2.61032 17.0303 2.46967C16.8897 2.32902 16.6989 2.25 16.5 2.25ZM15.75 14.25H2.25V13.8517L6.02475 10.7017L6.99975 11.4345L6.21975 12.2197C6.08313 12.3612 6.00753 12.5507 6.00924 12.7473C6.01095 12.9439 6.08983 13.1321 6.22888 13.2711C6.36794 13.4102 6.55605 13.489 6.7527 13.4908C6.94934 13.4925 7.13879 13.4169 7.28025 13.2803L11.919 8.6415L15.75 13.7498V14.25ZM15.75 11.25L12.6 7.05C12.5355 6.96406 12.4533 6.89297 12.359 6.84155C12.2646 6.79013 12.1604 6.75958 12.0532 6.75198C11.946 6.74437 11.8384 6.75987 11.7378 6.79744C11.6371 6.83502 11.5457 6.89378 11.4697 6.96975L8.07225 10.3673L6.45 9.15C6.31499 9.04864 6.14973 8.99579 5.98096 9.00001C5.81218 9.00423 5.64977 9.06527 5.52 9.17325L2.25 11.8988V3.75H15.75V11.25ZM3.75 6.75C3.75 6.45333 3.83797 6.16332 4.00279 5.91664C4.16762 5.66997 4.40188 5.47771 4.67597 5.36418C4.95006 5.25065 5.25166 5.22094 5.54263 5.27882C5.8336 5.3367 6.10088 5.47956 6.31066 5.68934C6.52044 5.89912 6.6633 6.16639 6.72117 6.45736C6.77905 6.74834 6.74935 7.04994 6.63582 7.32403C6.52228 7.59811 6.33003 7.83238 6.08335 7.9972C5.83668 8.16203 5.54667 8.25 5.25 8.25C4.85217 8.25 4.47064 8.09196 4.18934 7.81066C3.90803 7.52936 3.75 7.14782 3.75 6.75Z" fill="#88898A"/>
</svg>
