<svg xmlns="http://www.w3.org/2000/svg" width="478" height="460" viewBox="0 0 478 460" fill="none">
<g filter="url(#filter0_d_54_161033)">
<g clip-path="url(#clip0_54_161033)">
<rect x="42" y="25" width="400" height="410" rx="10" fill="white"/>
<line x1="42" y1="50.5" x2="442" y2="50.5" stroke="#CFD6E1"/>
<circle cx="55" cy="38" r="3" fill="#EE5687"/>
<circle cx="64" cy="38" r="3" fill="#FF8F3D"/>
<circle cx="73" cy="38" r="3" fill="#249707"/>
<circle cx="71" cy="80" r="14" fill="#FFE9E9"/>
<rect x="95" y="77" width="40" height="6" rx="3" fill="#E5E6FA"/>
<rect x="168" y="77" width="35" height="6" rx="3" fill="#EBEDFF"/>
<rect x="213" y="77" width="35" height="6" rx="3" fill="#EBEDFF"/>
<rect x="258" y="77" width="35" height="6" rx="3" fill="#EBEDFF"/>
<rect x="303" y="77" width="35" height="6" rx="3" fill="#EBEDFF"/>
<rect x="371" y="69" width="57" height="22" rx="11" fill="#C5CAFF"/>
<rect x="57" y="109" width="370" height="130" rx="8" fill="#EBEDFF"/>
<rect x="72" y="204" width="57" height="20" rx="10" fill="#C5CAFF"/>
<rect x="72" y="124" width="110" height="23" rx="3" fill="#DFE2FF"/>
<rect x="72" y="162" width="140" height="6" rx="3" fill="#DADEFF"/>
<rect x="72" y="173" width="140" height="6" rx="3" fill="#DADEFF"/>
<rect x="72" y="184" width="90" height="6" rx="3" fill="#DADEFF"/>
<rect x="252" y="124" width="160" height="100" rx="8" fill="#DFE2FF"/>
<rect x="174" y="259" width="136" height="12" rx="6" fill="#E2E5FF"/>
<rect x="152" y="281" width="180" height="6" rx="3" fill="#E2E5FF"/>
<rect x="77.5" y="299.5" width="99" height="108" rx="4.5" fill="white" stroke="#FFDDD3"/>
<rect x="87" y="309" width="80" height="50" rx="4" fill="#FFF4E8"/>
<rect x="87" y="366" width="65" height="6" rx="3" fill="#FFF4E8"/>
<rect x="87" y="377" width="40" height="6" rx="3" fill="#FFF4E8"/>
<rect x="87" y="388" width="40" height="10" rx="5" fill="#FED4A5"/>
<rect x="192.5" y="299.5" width="99" height="108" rx="4.5" fill="white" stroke="#B1FED1"/>
<rect x="202" y="309" width="80" height="50" rx="4" fill="#E5FEF0"/>
<rect x="202" y="366" width="65" height="6" rx="3" fill="#E5FEF0"/>
<rect x="202" y="377" width="40" height="6" rx="3" fill="#E5FEF0"/>
<rect x="202" y="388" width="40" height="10" rx="5" fill="#ABEFC8"/>
<rect x="307.5" y="299.5" width="99" height="108" rx="4.5" fill="white" stroke="#F5BFFF"/>
<rect x="317" y="309" width="80" height="50" rx="4" fill="#FBE2FF"/>
<rect x="317" y="366" width="65" height="6" rx="3" fill="#FBE2FF"/>
<rect x="317" y="377" width="40" height="6" rx="3" fill="#FBE2FF"/>
<rect x="317" y="388" width="40" height="10" rx="5" fill="#F09EFF"/>
<circle opacity="0.75" cx="242" cy="230" r="57" fill="white"/>
<path d="M251.365 224.139C266.305 225.145 267.09 225.96 268.058 241.49C269.025 225.96 269.81 225.145 284.75 224.139C269.81 223.133 269.025 222.317 268.058 206.788C267.09 222.317 266.305 223.133 251.365 224.139Z" fill="url(#paint0_linear_54_161033)"/>
<path d="M199.25 214.37C222.601 215.942 223.828 217.217 225.34 241.49C226.853 217.217 228.079 215.942 251.43 214.37C228.079 212.798 226.852 211.523 225.34 187.25C223.827 211.523 222.601 212.798 199.25 214.37Z" fill="url(#paint1_linear_54_161033)"/>
<path d="M221.122 247.051C243.25 248.541 244.412 249.749 245.845 272.75C247.278 249.749 248.44 248.541 270.568 247.051C248.44 245.561 247.278 244.353 245.845 221.352C244.412 244.353 243.25 245.561 221.122 247.051Z" fill="url(#paint2_linear_54_161033)"/>
</g>
<rect x="41.5" y="24.5" width="401" height="411" rx="10.5" stroke="url(#paint3_linear_54_161033)" shape-rendering="crispEdges"/>
</g>
<g filter="url(#filter1_d_54_161033)">
<rect x="422" y="210" width="40" height="40" rx="20" fill="white"/>
<rect x="422.5" y="210.5" width="39" height="39" rx="19.5" stroke="url(#paint4_linear_54_161033)"/>
<path d="M442.049 230.433C442.045 230.446 442.036 230.458 442.032 230.473C441.84 230.753 441.665 230.938 440.723 231.117C440.128 231.234 439.601 231.079 439.501 230.834C439.497 230.821 439.497 230.812 439.493 230.8L433.277 231.693L439.484 230.62C439.608 230.463 440.19 230.275 440.697 230.209C441.117 230.156 441.657 230.171 441.891 230.234L450.706 228.829L449.175 227.831L433.567 231.514L433.252 231.588L432.77 231.697L431.627 231.93H431.614L430.744 232.058L433.164 231.139C433.068 230.586 433.043 230.017 433.09 229.435C433.405 225.618 436.761 222.774 440.574 223.089C442.814 223.273 444.723 224.507 445.846 226.266L446.043 226.241L448.957 225.567C447.454 222.533 444.443 220.337 440.827 220.034C435.33 219.582 430.488 223.684 430.034 229.177C429.951 230.192 430.021 231.185 430.23 232.132C430.239 232.171 430.243 232.211 430.256 232.245C431.211 236.369 434.738 239.599 439.181 239.966C441.356 240.145 443.426 239.612 445.168 238.556H445.173L449.629 232.731L450.203 231.983L451.704 231.962L454.422 228.661L442.049 230.433ZM445.887 232.599L444.522 232.844L445.26 233.424L443.158 236.177L443.153 236.181C442.047 236.75 440.768 237.026 439.433 236.913C436.588 236.68 434.286 234.746 433.433 232.202L446.139 232.036L446.322 232.032L449.337 231.991L445.887 232.599Z" fill="#2E42FF"/>
</g>
<rect x="195.5" y="415.5" width="93" height="33" rx="5.5" fill="white" stroke="url(#paint5_linear_54_161033)"/>
<path d="M273.287 437.336L269.068 426.086C269.013 425.938 268.914 425.811 268.784 425.722C268.655 425.632 268.501 425.584 268.344 425.584C268.186 425.584 268.033 425.632 267.903 425.722C267.774 425.811 267.675 425.938 267.619 426.086L263.401 437.336C263.331 437.527 263.34 437.739 263.425 437.924C263.51 438.109 263.665 438.253 263.856 438.325C264.047 438.396 264.258 438.39 264.444 438.306C264.63 438.223 264.776 438.069 264.849 437.879L266.12 434.489C266.125 434.476 266.134 434.464 266.146 434.456C266.158 434.448 266.172 434.443 266.186 434.443H270.501C270.516 434.443 270.529 434.448 270.541 434.456C270.553 434.464 270.562 434.476 270.567 434.489L271.838 437.879C271.912 438.069 272.057 438.223 272.243 438.306C272.429 438.39 272.64 438.396 272.831 438.325C273.022 438.253 273.177 438.109 273.262 437.924C273.348 437.739 273.356 437.527 273.287 437.336ZM266.753 432.801L268.278 428.735C268.283 428.722 268.292 428.71 268.304 428.702C268.315 428.694 268.329 428.69 268.344 428.69C268.358 428.69 268.372 428.694 268.384 428.702C268.395 428.71 268.404 428.722 268.409 428.735L269.934 432.801C269.938 432.812 269.939 432.824 269.938 432.835C269.937 432.846 269.933 432.857 269.926 432.866C269.92 432.875 269.911 432.883 269.901 432.888C269.891 432.894 269.88 432.896 269.868 432.896H266.819C266.808 432.896 266.796 432.894 266.786 432.888C266.776 432.883 266.768 432.875 266.761 432.866C266.755 432.857 266.751 432.846 266.749 432.835C266.748 432.824 266.749 432.812 266.753 432.801V432.801ZM277.089 428.959C275.623 428.948 274.309 429.798 273.75 431.117C273.669 431.306 273.668 431.519 273.744 431.709C273.821 431.9 273.97 432.052 274.159 432.132C274.348 432.212 274.561 432.214 274.751 432.137C274.941 432.06 275.093 431.911 275.173 431.722C275.486 430.988 276.22 430.511 277.048 430.506C278.184 430.498 279.101 431.437 279.101 432.575C279.101 432.588 279.096 432.602 279.087 432.611C279.077 432.621 279.064 432.627 279.051 432.627C278.28 432.649 277.366 432.7 276.55 432.796C274.625 433.023 273.476 434.072 273.476 435.603C273.476 436.419 273.784 437.15 274.344 437.666C274.869 438.15 275.586 438.416 276.359 438.416C277.449 438.416 278.387 438.135 279.099 437.6H279.101C279.101 437.701 279.121 437.802 279.159 437.896C279.198 437.99 279.254 438.075 279.326 438.147C279.397 438.22 279.482 438.277 279.576 438.316C279.67 438.355 279.77 438.376 279.872 438.376C279.973 438.377 280.074 438.357 280.168 438.319C280.262 438.28 280.347 438.224 280.419 438.152C280.492 438.081 280.549 437.996 280.588 437.902C280.627 437.808 280.648 437.708 280.648 437.606V432.579C280.648 430.604 279.066 428.973 277.089 428.959ZM276.359 436.869C275.743 436.869 275.023 436.538 275.023 435.603C275.023 435.228 275.158 434.966 275.46 434.752C275.755 434.543 276.206 434.394 276.731 434.333C277.473 434.245 278.307 434.197 279.021 434.175C279.031 434.175 279.04 434.177 279.049 434.181C279.057 434.185 279.065 434.19 279.072 434.197C279.079 434.204 279.084 434.212 279.087 434.221C279.09 434.23 279.092 434.24 279.091 434.249C278.996 436.011 278.098 436.869 276.359 436.869Z" fill="url(#paint6_linear_54_161033)"/>
<path d="M249.236 424.892C249.23 424.863 249.215 424.836 249.195 424.815C249.174 424.794 249.148 424.779 249.12 424.773C247.208 424.305 242.791 425.971 240.396 428.365C239.969 428.788 239.58 429.248 239.233 429.738C238.495 429.672 237.756 429.728 237.128 430.002C235.353 430.783 234.836 432.821 234.692 433.696C234.684 433.744 234.688 433.793 234.702 433.84C234.716 433.886 234.741 433.929 234.774 433.964C234.807 433.999 234.848 434.026 234.894 434.043C234.939 434.06 234.988 434.067 235.037 434.062L237.887 433.749C237.889 433.964 237.902 434.178 237.925 434.392C237.94 434.54 238.006 434.678 238.112 434.782L239.215 435.886C239.32 435.991 239.458 436.057 239.606 436.072C239.818 436.096 240.031 436.108 240.245 436.111L239.932 438.958C239.928 439.006 239.934 439.055 239.951 439.101C239.968 439.146 239.995 439.187 240.03 439.22C240.066 439.254 240.108 439.278 240.154 439.293C240.201 439.307 240.25 439.31 240.298 439.302C241.173 439.162 243.216 438.645 243.992 436.871C244.266 436.241 244.322 435.507 244.259 434.772C244.751 434.425 245.212 434.036 245.637 433.609C248.041 431.218 249.696 426.899 249.236 424.892ZM243.5 430.512C243.29 430.302 243.147 430.035 243.089 429.743C243.031 429.452 243.061 429.15 243.174 428.876C243.288 428.602 243.48 428.367 243.727 428.202C243.974 428.037 244.264 427.949 244.561 427.949C244.858 427.949 245.148 428.037 245.395 428.202C245.642 428.367 245.834 428.602 245.948 428.876C246.062 429.15 246.091 429.452 246.033 429.743C245.976 430.035 245.833 430.302 245.623 430.512C245.483 430.651 245.318 430.762 245.136 430.838C244.954 430.913 244.758 430.952 244.561 430.952C244.364 430.952 244.169 430.913 243.987 430.838C243.805 430.762 243.639 430.651 243.5 430.512Z" stroke="url(#paint7_linear_54_161033)" stroke-width="1.2" stroke-linecap="round" stroke-linejoin="round"/>
<path d="M236.855 435.375C236.504 435.418 236.178 435.577 235.928 435.826C235.309 436.448 235.25 438.75 235.25 438.75C235.25 438.75 237.553 438.691 238.173 438.071C238.424 437.822 238.583 437.495 238.625 437.144" stroke="url(#paint8_linear_54_161033)" stroke-width="1.2" stroke-linecap="round" stroke-linejoin="round"/>
<path d="M215.356 427.056L216.944 428.644M216.377 425.657L212.082 429.953C211.86 430.174 211.708 430.457 211.647 430.764L211.25 432.75L213.236 432.353C213.544 432.291 213.825 432.14 214.047 431.918L218.343 427.623C218.472 427.494 218.574 427.341 218.644 427.172C218.714 427.004 218.75 426.823 218.75 426.64C218.75 426.458 218.714 426.277 218.644 426.108C218.574 425.94 218.472 425.786 218.343 425.657C218.214 425.528 218.06 425.426 217.892 425.356C217.723 425.286 217.542 425.25 217.36 425.25C217.177 425.25 216.997 425.286 216.828 425.356C216.659 425.426 216.506 425.528 216.377 425.657Z" stroke="url(#paint9_linear_54_161033)" stroke-width="1.2" stroke-linecap="round" stroke-linejoin="round"/>
<path d="M217.25 434.25V436.5C217.25 436.898 217.092 437.279 216.811 437.561C216.529 437.842 216.148 438 215.75 438H207.5C207.102 438 206.721 437.842 206.439 437.561C206.158 437.279 206 436.898 206 436.5V428.25C206 427.852 206.158 427.471 206.439 427.189C206.721 426.908 207.102 426.75 207.5 426.75H209.75" stroke="url(#paint10_linear_54_161033)" stroke-width="1.2" stroke-linecap="round" stroke-linejoin="round"/>
<path d="M102 246.5H5C2.51472 246.5 0.5 248.515 0.5 251V291C0.5 293.485 2.51472 295.5 5 295.5H102C104.485 295.5 106.5 293.485 106.5 291V251C106.5 248.515 104.485 246.5 102 246.5Z" fill="white" stroke="url(#paint11_linear_54_161033)"/>
<path d="M102 247H5C2.79086 247 1 248.791 1 251V258H106V251C106 248.791 104.209 247 102 247Z" fill="#D5D9FF"/>
<path d="M20.3999 270.361H8.21191V282.549H20.3999V270.361Z" fill="white"/>
<path d="M20.3999 282.549C20.3829 282.532 20.3659 282.211 20.3479 281.626C20.3329 280.976 20.3129 280.144 20.2889 279.124C20.2599 276.926 20.2209 273.928 20.1739 270.361L20.3989 270.586C16.8369 270.596 12.6639 270.608 8.21289 270.621C8.15489 270.677 8.70486 270.129 8.47186 270.363V270.366V270.373V270.386V270.412V270.464V270.569V270.778V271.194V272.02C8.47086 272.568 8.47088 273.112 8.46988 273.649C8.46788 274.724 8.46489 275.775 8.46289 276.799C8.45389 278.841 8.44489 280.77 8.43689 282.548L8.21188 282.323C11.7799 282.37 14.7779 282.409 16.9759 282.438C17.9959 282.462 18.8279 282.482 19.4769 282.497C20.0619 282.516 20.3829 282.532 20.3999 282.549C20.4169 282.566 20.1289 282.583 19.5699 282.601C18.9339 282.616 18.1189 282.636 17.1189 282.66C14.9939 282.702 11.9169 282.753 8.21188 282.775L7.98788 282.776L7.98688 282.549C7.97888 280.771 7.96987 278.842 7.96087 276.8C7.95887 275.776 7.95589 274.724 7.95389 273.65C7.95289 273.112 7.95287 272.569 7.95187 272.021V271.195V270.779V270.57V270.465V270.413V270.387V270.374V270.367V270.364C7.71887 270.596 8.26887 270.044 8.21387 270.102C12.6659 270.115 16.8379 270.127 20.3999 270.137L20.6269 270.138L20.6259 270.363C20.6039 274.068 20.5529 277.144 20.5109 279.27C20.4869 280.269 20.4669 281.085 20.4519 281.721C20.4329 282.278 20.4169 282.566 20.3999 282.549Z" fill="#263238"/>
<path d="M8.21184 282.549C8.10984 282.447 10.7558 279.636 14.1208 276.271C17.4868 272.905 20.2978 270.259 20.3988 270.361C20.5008 270.463 17.8548 273.273 14.4888 276.639C11.1248 280.005 8.31384 282.651 8.21184 282.549Z" fill="#E76AFE"/>
<path d="M36.2588 270.361H24.0708V282.549H36.2588V270.361Z" fill="#EE5687"/>
<path d="M52.1182 270.361H39.9302V282.549H52.1182V270.361Z" fill="#F9C48A"/>
<path d="M67.9761 270.361H55.7881V282.549H67.9761V270.361Z" fill="#E76AFE"/>
<path d="M83.835 270.361H71.647V282.549H83.835V270.361Z" fill="#8ED9AE"/>
<path d="M99.6938 270.361H87.5059V282.549H99.6938V270.361Z" fill="#4C5EFF"/>
<rect x="217" width="50" height="50" rx="25" fill="url(#paint12_linear_54_161033)"/>
<path d="M234.118 33.7646H231.322L237.603 16.3101H240.646L246.927 33.7646H244.132L239.197 19.4806H239.061L234.118 33.7646ZM234.586 26.9294H243.655V29.1453H234.586V26.9294ZM251.361 16.3101V33.7646H248.728V16.3101H251.361Z" fill="white"/>
<defs>
<filter id="filter0_d_54_161033" x="21" y="8" width="442" height="452" filterUnits="userSpaceOnUse" color-interpolation-filters="sRGB">
<feFlood flood-opacity="0" result="BackgroundImageFix"/>
<feColorMatrix in="SourceAlpha" type="matrix" values="0 0 0 0 0 0 0 0 0 0 0 0 0 0 0 0 0 0 127 0" result="hardAlpha"/>
<feOffset dy="4"/>
<feGaussianBlur stdDeviation="10"/>
<feComposite in2="hardAlpha" operator="out"/>
<feColorMatrix type="matrix" values="0 0 0 0 0 0 0 0 0 0 0 0 0 0 0 0 0 0 0.1 0"/>
<feBlend mode="normal" in2="BackgroundImageFix" result="effect1_dropShadow_54_161033"/>
<feBlend mode="normal" in="SourceGraphic" in2="effect1_dropShadow_54_161033" result="shape"/>
</filter>
<filter id="filter1_d_54_161033" x="406" y="196" width="72" height="72" filterUnits="userSpaceOnUse" color-interpolation-filters="sRGB">
<feFlood flood-opacity="0" result="BackgroundImageFix"/>
<feColorMatrix in="SourceAlpha" type="matrix" values="0 0 0 0 0 0 0 0 0 0 0 0 0 0 0 0 0 0 127 0" result="hardAlpha"/>
<feOffset dy="2"/>
<feGaussianBlur stdDeviation="8"/>
<feComposite in2="hardAlpha" operator="out"/>
<feColorMatrix type="matrix" values="0 0 0 0 0 0 0 0 0 0 0 0 0 0 0 0 0 0 0.1 0"/>
<feBlend mode="normal" in2="BackgroundImageFix" result="effect1_dropShadow_54_161033"/>
<feBlend mode="normal" in="SourceGraphic" in2="effect1_dropShadow_54_161033" result="shape"/>
</filter>
<linearGradient id="paint0_linear_54_161033" x1="255.563" y1="201.41" x2="281.964" y2="241.889" gradientUnits="userSpaceOnUse">
<stop stop-color="#C13EFF"/>
<stop offset="1" stop-color="#2E42FF"/>
</linearGradient>
<linearGradient id="paint1_linear_54_161033" x1="205.811" y1="178.844" x2="247.075" y2="242.113" gradientUnits="userSpaceOnUse">
<stop stop-color="#C13EFF"/>
<stop offset="1" stop-color="#2E42FF"/>
</linearGradient>
<linearGradient id="paint2_linear_54_161033" x1="227.339" y1="213.387" x2="266.442" y2="273.341" gradientUnits="userSpaceOnUse">
<stop stop-color="#C13EFF"/>
<stop offset="1" stop-color="#2E42FF"/>
</linearGradient>
<linearGradient id="paint3_linear_54_161033" x1="-50" y1="-163" x2="557" y2="584.5" gradientUnits="userSpaceOnUse">
<stop stop-color="#C13EFF"/>
<stop offset="1" stop-color="#2E42FF"/>
</linearGradient>
<linearGradient id="paint4_linear_54_161033" x1="439" y1="185" x2="442" y2="285.5" gradientUnits="userSpaceOnUse">
<stop stop-color="#C13EFF"/>
<stop offset="1" stop-color="#4C5EFF"/>
</linearGradient>
<linearGradient id="paint5_linear_54_161033" x1="215.577" y1="393.565" x2="279.76" y2="453.226" gradientUnits="userSpaceOnUse">
<stop stop-color="#C13EFF"/>
<stop offset="1" stop-color="#2E42FF"/>
</linearGradient>
<linearGradient id="paint6_linear_54_161033" x1="272.001" y1="425.584" x2="272.001" y2="438.416" gradientUnits="userSpaceOnUse">
<stop stop-color="#C13EFF"/>
<stop offset="1" stop-color="#2537DF"/>
</linearGradient>
<linearGradient id="paint7_linear_54_161033" x1="242" y1="424.694" x2="242" y2="439.306" gradientUnits="userSpaceOnUse">
<stop stop-color="#C13EFF"/>
<stop offset="1" stop-color="#2537DF"/>
</linearGradient>
<linearGradient id="paint8_linear_54_161033" x1="236.938" y1="435.375" x2="236.938" y2="438.75" gradientUnits="userSpaceOnUse">
<stop stop-color="#C13EFF"/>
<stop offset="1" stop-color="#2537DF"/>
</linearGradient>
<linearGradient id="paint9_linear_54_161033" x1="215" y1="425.25" x2="215" y2="432.75" gradientUnits="userSpaceOnUse">
<stop stop-color="#C13EFF"/>
<stop offset="1" stop-color="#2537DF"/>
</linearGradient>
<linearGradient id="paint10_linear_54_161033" x1="211.625" y1="426.75" x2="211.625" y2="438" gradientUnits="userSpaceOnUse">
<stop stop-color="#C13EFF"/>
<stop offset="1" stop-color="#2537DF"/>
</linearGradient>
<linearGradient id="paint11_linear_54_161033" x1="-21.7782" y1="195.692" x2="170.147" y2="315.994" gradientUnits="userSpaceOnUse">
<stop stop-color="#C13EFF"/>
<stop offset="1" stop-color="#2E42FF"/>
</linearGradient>
<linearGradient id="paint12_linear_54_161033" x1="208.071" y1="-20.3571" x2="299.5" y2="75" gradientUnits="userSpaceOnUse">
<stop stop-color="#C13EFF"/>
<stop offset="1" stop-color="#2E42FF"/>
</linearGradient>
<clipPath id="clip0_54_161033">
<rect x="42" y="25" width="400" height="410" rx="10" fill="white"/>
</clipPath>
</defs>
</svg>