<svg width="264" height="50" viewBox="0 0 264 50" fill="none" xmlns="http://www.w3.org/2000/svg">
<path d="M7.85793 25C7.85793 22.4858 8.37173 20.1435 9.34449 18.028L17.516 40.427C11.802 37.6842 7.85976 31.7983 7.85976 24.9982L7.85793 25ZM36.5981 24.1424C36.5981 25.629 36.0258 27.2856 35.2834 29.6846L33.5683 35.3986L27.3405 16.9419C28.3699 16.8852 29.3408 16.77 29.3408 16.77C30.2551 16.6548 30.1417 15.3419 29.2256 15.3986C29.2256 15.3986 26.4262 15.5705 24.6544 15.5705C22.9393 15.5705 20.1399 15.3986 20.1399 15.3986C19.2256 15.3419 19.1104 16.7133 20.0247 16.77C20.0247 16.77 20.8822 16.8852 21.7965 16.9419L24.4825 24.2558L20.7104 35.512L14.4825 16.9419C15.512 16.8852 16.4262 16.77 16.4262 16.77C17.3971 16.6548 17.2838 15.3419 16.311 15.3986C16.311 15.3986 13.5683 15.5705 11.7398 15.5705H10.6537C13.7402 10.9426 18.9971 7.8561 24.9963 7.8561C29.4542 7.8561 33.5098 9.57122 36.5963 12.3706C36.4811 12.314 36.4244 12.314 36.3677 12.314C34.6526 12.314 33.4531 13.8005 33.4531 15.4004C33.4531 16.7718 34.3107 17.9713 35.1682 19.4012C35.7972 20.544 36.5963 22.0305 36.5963 24.1443L36.5981 24.1424ZM20.1417 41.4564L25.2852 26.4847L30.5988 40.9408C30.5988 41.056 30.6555 41.1126 30.714 41.1693C28.9422 41.7983 27.0004 42.1402 25 42.1402C23.3434 42.1402 21.685 41.9117 20.1435 41.4546L20.1417 41.4564ZM40.0265 16.7718C41.3979 19.2293 42.1402 22.0287 42.1402 25C42.1402 31.343 38.7118 36.8285 33.6268 39.8565L38.8837 24.6562C39.8546 22.2554 40.1417 20.2569 40.1417 18.5418C40.1417 17.9128 40.1417 17.3441 40.0265 16.7718ZM25 5C36.0276 5 45 13.9706 45 25C45 36.0294 36.0294 45 25 45C13.9706 45 5 36.0294 5 25C5 13.9706 13.9706 5 25 5ZM25 44.0839C35.5138 44.0839 44.0858 35.512 44.0858 24.9982C44.0858 14.4844 35.5138 5.91242 25 5.91242C14.4862 5.91242 5.91424 14.4844 5.91424 24.9982C5.91424 35.512 14.4862 44.0839 25 44.0839Z" fill="#1E2022"/>
<path d="M65 25H105" stroke="#8C98A4" stroke-width="1.6" stroke-dasharray="3 5"/>
<path fill-rule="evenodd" clip-rule="evenodd" d="M132 36C133.445 36 134.875 35.7155 136.21 35.1627C137.544 34.6099 138.757 33.7996 139.778 32.7782C140.8 31.7567 141.61 30.5441 142.163 29.2095C142.715 27.8749 143 26.4445 143 25C143 23.5555 142.715 22.1251 142.163 20.7905C141.61 19.4559 140.8 18.2433 139.778 17.2218C138.757 16.2004 137.544 15.3901 136.21 14.8373C134.875 14.2845 133.445 14 132 14C129.083 14 126.285 15.1589 124.222 17.2218C122.159 19.2847 121 22.0826 121 25C121 27.9174 122.159 30.7153 124.222 32.7782C126.285 34.8411 129.083 36 132 36ZM131.716 29.4489L137.828 22.1156L135.95 20.5511L130.695 26.8566L127.975 24.1359L126.247 25.8641L129.914 29.5308L130.86 30.4768L131.716 29.4489Z" fill="#02D25A"/>
<path d="M159 25H199" stroke="#8C98A4" stroke-width="1.6" stroke-dasharray="3 5"/>
<path d="M238.735 25.6924C238.728 25.7129 238.714 25.7334 238.707 25.7573C238.392 26.2042 238.106 26.501 236.562 26.7875C235.588 26.9752 234.725 26.7261 234.561 26.3338C234.554 26.3133 234.554 26.2997 234.547 26.2792L224.368 27.7086L234.533 25.9927C234.736 25.7402 235.689 25.44 236.52 25.3342C237.208 25.2489 238.092 25.2728 238.476 25.3752L252.913 23.127L250.406 21.5304L224.842 27.4221L224.326 27.5415L223.536 27.7155L221.665 28.0873H221.644L220.219 28.292L224.182 26.8216C224.025 25.9381 223.983 25.0272 224.06 24.0958C224.577 17.9892 230.074 13.4383 236.318 13.9432C239.988 14.2366 243.114 16.2118 244.954 19.0263L245.276 18.9854L250.049 17.9074C247.587 13.0528 242.656 9.53891 236.734 9.05447C227.731 8.33123 219.8 14.895 219.056 23.6831C218.92 25.3069 219.035 26.8967 219.377 28.4114C219.391 28.4728 219.398 28.5376 219.419 28.5922C220.984 35.1901 226.76 40.3585 234.038 40.9453C237.6 41.2319 240.991 40.379 243.844 38.6903H243.851L251.149 29.3701L252.089 28.1726L254.547 28.1385L259 22.8575L238.735 25.6924ZM245.021 29.1585L242.786 29.5509L243.994 30.4788L240.551 34.8831L240.544 34.8899C238.731 35.8008 236.636 36.2408 234.45 36.06C229.791 35.6882 226.019 32.5939 224.622 28.524L245.433 28.2579L245.733 28.2511L250.671 28.1863L245.021 29.1585Z" fill="#2E42FF"/>
</svg>
