<svg width="16" height="14" viewBox="0 0 16 14" fill="none" xmlns="http://www.w3.org/2000/svg">
<path d="M7.21546 1.78522C7.21546 1.33852 7.56741 0.975098 7.99999 0.975098C8.43256 0.975098 8.78448 1.33852 8.78448 1.78522C8.78448 2.23192 8.43256 2.59533 7.99999 2.59533C7.56741 2.5953 7.21546 2.23189 7.21546 1.78522ZM4.28102 6.52997C4.48845 6.52997 4.70722 6.51009 4.9373 6.46657C5.86604 6.29091 6.59012 5.69872 7.08943 4.70651C7.43146 4.02683 7.58845 3.3075 7.65914 2.84491C7.76638 2.88179 7.88092 2.90206 7.99999 2.90206C8.11906 2.90206 8.23356 2.88179 8.3408 2.84491C8.41149 3.3075 8.56846 4.02677 8.91048 4.70651C9.40979 5.69875 10.1339 6.29091 11.0626 6.46657C11.2928 6.51015 11.5114 6.53 11.7189 6.53C13.2158 6.53 14.1288 5.49677 14.5405 4.87906C14.678 4.99275 14.8427 5.07248 15.0228 5.10608C14.544 6.45232 13.4586 10.9303 13.2358 11.432C13.2276 11.432 13.2189 11.4319 13.2098 11.4319C13.1311 11.4314 13.016 11.4309 12.8697 11.4306C12.5774 11.4299 12.1604 11.4294 11.6604 11.4292C10.6604 11.4287 9.3281 11.429 7.99615 11.4297C5.72001 11.4308 3.44512 11.4329 2.83092 11.4334H2.76482C2.54343 10.9349 1.45645 6.45375 0.976913 5.10614C1.15715 5.07258 1.32197 4.99284 1.45945 4.87909C1.87119 5.49677 2.78402 6.52997 4.28102 6.52997ZM0 4.00727C0 3.56057 0.351924 3.19715 0.784498 3.19715C1.21707 3.19715 1.569 3.56057 1.569 4.00727C1.569 4.45397 1.21707 4.81739 0.784498 4.81739L0.782045 4.81733L0.779418 4.81727C0.349182 4.81441 0 4.45221 0 4.00727ZM13.1817 12.8499C13.1817 12.9466 13.1055 13.0253 13.0118 13.0253H2.98818C2.89451 13.0253 2.81834 12.9466 2.81834 12.8499V11.7402C2.82177 11.7402 2.82515 11.7402 2.82859 11.7402H13.1817V12.8499ZM15.2194 4.8173L15.218 4.81733L15.2155 4.81739C14.7829 4.81739 14.431 4.45397 14.431 4.00727C14.431 3.56057 14.7829 3.19715 15.2155 3.19715C15.6481 3.19715 16 3.56057 16 4.00727C16 4.45263 15.6502 4.81509 15.2194 4.8173Z" fill="white"/>
</svg>
