<svg width="342" height="350" viewBox="0 0 342 350" fill="none" xmlns="http://www.w3.org/2000/svg">
<g clip-path="url(#clip0_54_174960)">
<g filter="url(#filter0_d_54_174960)">
<mask id="mask0_54_174960" style="mask-type:luminance" maskUnits="userSpaceOnUse" x="0" y="0" width="341" height="350">
<path d="M332.16 0.849609H9.34476C4.65302 0.849609 0.849609 4.65302 0.849609 9.34476V340.655C0.849609 345.347 4.65302 349.151 9.34476 349.151H332.16C336.852 349.151 340.655 345.347 340.655 340.655V9.34476C340.655 4.65302 336.852 0.849609 332.16 0.849609Z" fill="white"/>
</mask>
<g mask="url(#mask0_54_174960)">
<path d="M332.16 0.849609H9.34476C4.65302 0.849609 0.849609 4.65302 0.849609 9.34476V340.655C0.849609 345.347 4.65302 349.151 9.34476 349.151H332.16C336.852 349.151 340.655 345.347 340.655 340.655V9.34476C340.655 4.65302 336.852 0.849609 332.16 0.849609Z" fill="white"/>
<path d="M0.849609 22.5122H340.655" stroke="#CFD6E1"/>
<path d="M11.8933 14.4418C13.3008 14.4418 14.4418 13.3008 14.4418 11.8933C14.4418 10.4857 13.3008 9.34473 11.8933 9.34473C10.4857 9.34473 9.34473 10.4857 9.34473 11.8933C9.34473 13.3008 10.4857 14.4418 11.8933 14.4418Z" fill="#EE5687"/>
<path d="M19.5388 14.4418C20.9463 14.4418 22.0873 13.3008 22.0873 11.8933C22.0873 10.4857 20.9463 9.34473 19.5388 9.34473C18.1313 9.34473 16.9902 10.4857 16.9902 11.8933C16.9902 13.3008 18.1313 14.4418 19.5388 14.4418Z" fill="#FF8F3D"/>
<path d="M27.1848 14.4418C28.5923 14.4418 29.7333 13.3008 29.7333 11.8933C29.7333 10.4857 28.5923 9.34473 27.1848 9.34473C25.7773 9.34473 24.6362 10.4857 24.6362 11.8933C24.6362 13.3008 25.7773 14.4418 27.1848 14.4418Z" fill="#249707"/>
<path d="M25.4855 59.4661C32.0539 59.4661 37.3787 54.1413 37.3787 47.5729C37.3787 41.0045 32.0539 35.6797 25.4855 35.6797C18.9171 35.6797 13.5923 41.0045 13.5923 47.5729C13.5923 54.1413 18.9171 59.4661 25.4855 59.4661Z" fill="#FFE9E9"/>
<path d="M77.3061 45.0244H48.4226C47.015 45.0244 45.874 46.1654 45.874 47.573C45.874 48.9805 47.015 50.1215 48.4226 50.1215H77.3061C78.7136 50.1215 79.8546 48.9805 79.8546 47.573C79.8546 46.1654 78.7136 45.0244 77.3061 45.0244Z" fill="#E5E6FA"/>
<path d="M135.073 45.0244H110.437C109.03 45.0244 107.889 46.1654 107.889 47.573C107.889 48.9805 109.03 50.1215 110.437 50.1215H135.073C136.481 50.1215 137.622 48.9805 137.622 47.573C137.622 46.1654 136.481 45.0244 135.073 45.0244Z" fill="#EBEDFF"/>
<path d="M173.301 45.0244H148.665C147.258 45.0244 146.117 46.1654 146.117 47.573C146.117 48.9805 147.258 50.1215 148.665 50.1215H173.301C174.709 50.1215 175.85 48.9805 175.85 47.573C175.85 46.1654 174.709 45.0244 173.301 45.0244Z" fill="#EBEDFF"/>
<path d="M211.529 45.0244H186.893C185.486 45.0244 184.345 46.1654 184.345 47.573C184.345 48.9805 185.486 50.1215 186.893 50.1215H211.529C212.937 50.1215 214.078 48.9805 214.078 47.573C214.078 46.1654 212.937 45.0244 211.529 45.0244Z" fill="#EBEDFF"/>
<path d="M249.757 45.0244H225.121C223.714 45.0244 222.573 46.1654 222.573 47.573C222.573 48.9805 223.714 50.1215 225.121 50.1215H249.757C251.165 50.1215 252.306 48.9805 252.306 47.573C252.306 46.1654 251.165 45.0244 249.757 45.0244Z" fill="#EBEDFF"/>
<path d="M319.418 38.2283H289.685C284.524 38.2283 280.34 42.412 280.34 47.5729C280.34 52.7338 284.524 56.9176 289.685 56.9176H319.418C324.578 56.9176 328.762 52.7338 328.762 47.5729C328.762 42.412 324.578 38.2283 319.418 38.2283Z" fill="#C5CAFF"/>
<path d="M321.117 72.2087H20.3884C16.635 72.2087 13.5923 75.2515 13.5923 79.0049V175.85C13.5923 179.603 16.635 182.646 20.3884 182.646H321.117C324.87 182.646 327.913 179.603 327.913 175.85V79.0049C327.913 75.2515 324.87 72.2087 321.117 72.2087Z" fill="#EBEDFF"/>
<path d="M66.2621 152.913H34.8301C30.1384 152.913 26.335 156.716 26.335 161.408C26.335 166.099 30.1384 169.903 34.8301 169.903H66.2621C70.9539 169.903 74.7573 166.099 74.7573 161.408C74.7573 156.716 70.9539 152.913 66.2621 152.913Z" fill="#C5CAFF"/>
<path d="M117.233 84.9517H28.8835C27.476 84.9517 26.335 86.0927 26.335 87.5002V101.942C26.335 103.349 27.476 104.49 28.8835 104.49H117.233C118.641 104.49 119.782 103.349 119.782 101.942V87.5002C119.782 86.0927 118.641 84.9517 117.233 84.9517Z" fill="#DFE2FF"/>
<path d="M142.718 117.233H28.8835C27.476 117.233 26.335 118.374 26.335 119.782C26.335 121.189 27.476 122.33 28.8835 122.33H142.718C144.126 122.33 145.267 121.189 145.267 119.782C145.267 118.374 144.126 117.233 142.718 117.233Z" fill="#DADEFF"/>
<path d="M142.718 126.578H28.8835C27.476 126.578 26.335 127.719 26.335 129.126C26.335 130.534 27.476 131.675 28.8835 131.675H142.718C144.126 131.675 145.267 130.534 145.267 129.126C145.267 127.719 144.126 126.578 142.718 126.578Z" fill="#DADEFF"/>
<path d="M100.243 135.922H28.8835C27.476 135.922 26.335 137.063 26.335 138.471C26.335 139.878 27.476 141.019 28.8835 141.019H100.243C101.65 141.019 102.791 139.878 102.791 138.471C102.791 137.063 101.65 135.922 100.243 135.922Z" fill="#DADEFF"/>
<path d="M308.374 84.9517H186.044C182.29 84.9517 179.248 87.9944 179.248 91.7478V163.107C179.248 166.86 182.29 169.903 186.044 169.903H308.374C312.127 169.903 315.17 166.86 315.17 163.107V91.7478C315.17 87.9944 312.127 84.9517 308.374 84.9517Z" fill="#DFE2FF"/>
<path d="M223.422 199.636H118.082C115.267 199.636 112.985 201.918 112.985 204.733C112.985 207.548 115.267 209.83 118.082 209.83H223.422C226.237 209.83 228.519 207.548 228.519 204.733C228.519 201.918 226.237 199.636 223.422 199.636Z" fill="#E2E5FF"/>
<path d="M244.66 218.325H96.8449C95.4374 218.325 94.2964 219.466 94.2964 220.874C94.2964 222.282 95.4374 223.423 96.8449 223.423H244.66C246.068 223.423 247.209 222.282 247.209 220.874C247.209 219.466 246.068 218.325 244.66 218.325Z" fill="#E2E5FF"/>
<path d="M111.286 234.041H34.8301C32.7189 234.041 31.0073 235.753 31.0073 237.864V321.966C31.0073 324.077 32.7189 325.789 34.8301 325.789H111.286C113.398 325.789 115.109 324.077 115.109 321.966V237.864C115.109 235.753 113.398 234.041 111.286 234.041Z" fill="white" stroke="#FFDDD3"/>
<path d="M103.641 242.112H42.4757C40.599 242.112 39.0776 243.633 39.0776 245.51V281.189C39.0776 283.066 40.599 284.588 42.4757 284.588H103.641C105.517 284.588 107.039 283.066 107.039 281.189V245.51C107.039 243.633 105.517 242.112 103.641 242.112Z" fill="#FFF4E8"/>
<path d="M91.7475 290.534H41.6262C40.2187 290.534 39.0776 291.675 39.0776 293.083C39.0776 294.49 40.2187 295.631 41.6262 295.631H91.7475C93.1551 295.631 94.2961 294.49 94.2961 293.083C94.2961 291.675 93.1551 290.534 91.7475 290.534Z" fill="#FFF4E8"/>
<path d="M70.5097 299.879H41.6262C40.2187 299.879 39.0776 301.02 39.0776 302.427C39.0776 303.835 40.2187 304.976 41.6262 304.976H70.5097C71.9172 304.976 73.0582 303.835 73.0582 302.427C73.0582 301.02 71.9172 299.879 70.5097 299.879Z" fill="#FFF4E8"/>
<path d="M68.8106 309.223H43.3252C40.9793 309.223 39.0776 311.125 39.0776 313.471C39.0776 315.817 40.9793 317.719 43.3252 317.719H68.8106C71.1565 317.719 73.0582 315.817 73.0582 313.471C73.0582 311.125 71.1565 309.223 68.8106 309.223Z" fill="#FED4A5"/>
<path d="M208.981 234.041H132.524C130.413 234.041 128.702 235.753 128.702 237.864V321.966C128.702 324.077 130.413 325.789 132.524 325.789H208.981C211.092 325.789 212.804 324.077 212.804 321.966V237.864C212.804 235.753 211.092 234.041 208.981 234.041Z" fill="white" stroke="#B1FED1"/>
<path d="M201.335 242.112H140.17C138.293 242.112 136.772 243.633 136.772 245.51V281.189C136.772 283.066 138.293 284.588 140.17 284.588H201.335C203.212 284.588 204.733 283.066 204.733 281.189V245.51C204.733 243.633 203.212 242.112 201.335 242.112Z" fill="#E5FEF0"/>
<path d="M189.442 290.534H139.321C137.913 290.534 136.772 291.675 136.772 293.083C136.772 294.49 137.913 295.631 139.321 295.631H189.442C190.849 295.631 191.99 294.49 191.99 293.083C191.99 291.675 190.849 290.534 189.442 290.534Z" fill="#E5FEF0"/>
<path d="M168.204 299.879H139.321C137.913 299.879 136.772 301.02 136.772 302.427C136.772 303.835 137.913 304.976 139.321 304.976H168.204C169.612 304.976 170.753 303.835 170.753 302.427C170.753 301.02 169.612 299.879 168.204 299.879Z" fill="#E5FEF0"/>
<path d="M166.505 309.223H141.02C138.674 309.223 136.772 311.125 136.772 313.471C136.772 315.817 138.674 317.719 141.02 317.719H166.505C168.851 317.719 170.753 315.817 170.753 313.471C170.753 311.125 168.851 309.223 166.505 309.223Z" fill="#ABEFC8"/>
<path d="M306.675 234.041H230.218C228.107 234.041 226.396 235.753 226.396 237.864V321.966C226.396 324.077 228.107 325.789 230.218 325.789H306.675C308.786 325.789 310.497 324.077 310.497 321.966V237.864C310.497 235.753 308.786 234.041 306.675 234.041Z" fill="white" stroke="#F5BFFF"/>
<path d="M299.029 242.112H237.864C235.988 242.112 234.466 243.633 234.466 245.51V281.189C234.466 283.066 235.988 284.588 237.864 284.588H299.029C300.906 284.588 302.427 283.066 302.427 281.189V245.51C302.427 243.633 300.906 242.112 299.029 242.112Z" fill="#FBE2FF"/>
<path d="M287.136 290.534H237.015C235.607 290.534 234.466 291.675 234.466 293.083C234.466 294.49 235.607 295.631 237.015 295.631H287.136C288.544 295.631 289.685 294.49 289.685 293.083C289.685 291.675 288.544 290.534 287.136 290.534Z" fill="#FBE2FF"/>
<path d="M265.898 299.879H237.015C235.607 299.879 234.466 301.02 234.466 302.427C234.466 303.835 235.607 304.976 237.015 304.976H265.898C267.306 304.976 268.447 303.835 268.447 302.427C268.447 301.02 267.306 299.879 265.898 299.879Z" fill="#FBE2FF"/>
<path d="M264.199 309.223H238.714C236.368 309.223 234.466 311.125 234.466 313.471C234.466 315.817 236.368 317.719 238.714 317.719H264.199C266.545 317.719 268.447 315.817 268.447 313.471C268.447 311.125 266.545 309.223 264.199 309.223Z" fill="#F09EFF"/>
</g>
<path d="M332.16 0.424805H9.34471C4.41838 0.424805 0.424805 4.41838 0.424805 9.34471V340.655C0.424805 345.582 4.41838 349.575 9.34471 349.575H332.16C337.087 349.575 341.08 345.582 341.08 340.655V9.34471C341.08 4.41838 337.087 0.424805 332.16 0.424805Z" stroke="url(#paint0_linear_54_174960)"/>
</g>
</g>
<defs>
<filter id="filter0_d_54_174960" x="-20.0752" y="-16.0752" width="381.655" height="390.15" filterUnits="userSpaceOnUse" color-interpolation-filters="sRGB">
<feFlood flood-opacity="0" result="BackgroundImageFix"/>
<feColorMatrix in="SourceAlpha" type="matrix" values="0 0 0 0 0 0 0 0 0 0 0 0 0 0 0 0 0 0 127 0" result="hardAlpha"/>
<feOffset dy="4"/>
<feGaussianBlur stdDeviation="10"/>
<feComposite in2="hardAlpha" operator="out"/>
<feColorMatrix type="matrix" values="0 0 0 0 0 0 0 0 0 0 0 0 0 0 0 0 0 0 0.1 0"/>
<feBlend mode="normal" in2="BackgroundImageFix" result="effect1_dropShadow_54_174960"/>
<feBlend mode="normal" in="SourceGraphic" in2="effect1_dropShadow_54_174960" result="shape"/>
</filter>
<linearGradient id="paint0_linear_54_174960" x1="-77.3058" y1="-158.859" x2="438.35" y2="476.153" gradientUnits="userSpaceOnUse">
<stop stop-color="#C13EFF"/>
<stop offset="1" stop-color="#2E42FF"/>
</linearGradient>
<clipPath id="clip0_54_174960">
<rect width="341.505" height="350" fill="white"/>
</clipPath>
</defs>
</svg>
