<svg width="147" height="25" viewBox="0 0 147 25" fill="none" xmlns="http://www.w3.org/2000/svg">
<g clip-path="url(#clip0_54_161025)">
<path d="M14.4588 13.5198C14.4537 13.5352 14.4435 13.5505 14.4383 13.5684C14.2081 13.9036 13.9983 14.1262 12.8673 14.3411C12.1535 14.4819 11.5215 14.2951 11.4012 14.0008C11.3961 13.9855 11.3961 13.9752 11.391 13.9599L3.93258 15.032L11.3808 13.745C11.5292 13.5556 12.2277 13.3305 12.8366 13.2512C13.3407 13.1872 13.988 13.2051 14.2695 13.2819L24.8469 11.5957L23.0098 10.3983L4.28056 14.817L3.90188 14.9066L3.32363 15.0371L1.9522 15.316H1.93685L0.892927 15.4695L3.79698 14.3667C3.68184 13.704 3.65113 13.0209 3.70742 12.3224C4.0861 7.74241 8.11339 4.32919 12.6882 4.70787C15.3774 4.92791 17.6673 6.40936 19.0157 8.52023L19.2511 8.48953L22.7488 7.681C20.9449 4.04006 17.3321 1.40467 12.9927 1.04134C6.39655 0.498912 0.58589 5.42173 0.0409014 12.0128C-0.0588853 13.2307 0.0255496 14.423 0.276296 15.559C0.28653 15.6051 0.291648 15.6537 0.306999 15.6946C1.45327 20.643 5.68525 24.5194 11.0174 24.9595C13.6272 25.1744 16.1117 24.5347 18.2021 23.2682H18.2072L23.5547 16.278L24.243 15.3799L26.0443 15.3543L29.3066 11.3936L14.4588 13.5198ZM19.0643 16.1194L17.4268 16.4136L18.3121 17.1096L15.7893 20.4128L15.7842 20.4179C14.4562 21.101 12.9211 21.4311 11.3194 21.2955C7.90614 21.0166 5.14282 18.6959 4.11936 15.6435L19.3663 15.4439L19.5863 15.4388L23.2042 15.3902L19.0643 16.1194Z" fill="#2E42FF"/>
</g>
<path d="M42.3 20.0459C41.415 20.0459 40.5838 19.8919 39.8063 19.5838C39.0352 19.2695 38.3557 18.8105 37.7678 18.207C37.1863 17.6034 36.7312 16.8647 36.4025 15.9909C36.0738 15.1107 35.9094 14.1048 35.9094 12.9731C35.9094 11.4894 36.1875 10.2226 36.7438 9.17272C37.3001 8.11652 38.0617 7.30865 39.0289 6.74912C39.996 6.1833 41.0864 5.90039 42.3 5.90039C43.9814 5.90039 45.312 6.29018 46.2917 7.06975C47.2778 7.84304 47.9447 8.93067 48.2923 10.3327L45.9599 10.7004C45.7007 9.89571 45.2772 9.25445 44.6893 8.77664C44.1015 8.29255 43.3524 8.05051 42.4422 8.05051C41.5257 8.03793 40.764 8.23597 40.1572 8.64462C39.5503 9.05327 39.0921 9.62852 38.7823 10.3704C38.4789 11.1122 38.3272 11.9798 38.3272 12.9731C38.3272 13.9665 38.4789 14.8309 38.7823 15.5665C39.0857 16.2958 39.5409 16.8647 40.1477 17.2734C40.7608 17.682 41.5257 17.8926 42.4422 17.9052C43.1312 17.9115 43.7349 17.7889 44.2532 17.5374C44.7715 17.2797 45.195 16.893 45.5237 16.3775C45.8524 15.8557 46.0736 15.205 46.1874 14.4254H43.7791V12.6431H48.6147C48.6273 12.7437 48.6368 12.8914 48.6431 13.0863C48.6495 13.2812 48.6526 13.3975 48.6526 13.4352C48.6526 14.7178 48.3966 15.8588 47.8846 16.8584C47.3789 17.8518 46.652 18.6313 45.7039 19.1972C44.7557 19.763 43.6211 20.0459 42.3 20.0459Z" fill="#191549"/>
<path d="M50.1777 19.763V9.57822H52.1972V12.0584L51.9507 11.7378C52.0771 11.3983 52.2447 11.0902 52.4532 10.8136C52.6682 10.5307 52.9242 10.2981 53.2213 10.1158C53.4741 9.94601 53.7522 9.81398 54.0556 9.71968C54.3654 9.61909 54.6814 9.55936 55.0038 9.5405C55.3262 9.51535 55.639 9.52793 55.9425 9.57822V11.7C55.639 11.612 55.2882 11.5837 54.89 11.6152C54.4981 11.6466 54.1441 11.7566 53.8281 11.9452C53.512 12.115 53.2529 12.3319 53.0506 12.5959C52.8546 12.86 52.7093 13.1618 52.6144 13.5012C52.5196 13.8344 52.4722 14.1959 52.4722 14.5857V19.763H50.1777Z" fill="#191549"/>
<path d="M59.9952 20.0459C59.2557 20.0459 58.6299 19.9076 58.1179 19.631C57.6059 19.3481 57.2171 18.974 56.9517 18.5088C56.6925 18.0435 56.5629 17.5311 56.5629 16.9716C56.5629 16.4812 56.6451 16.0411 56.8094 15.6514C56.9738 15.2553 57.2266 14.9158 57.568 14.6329C57.9093 14.3437 58.3518 14.1079 58.8954 13.9256C59.3062 13.7936 59.7866 13.6741 60.3366 13.5673C60.8928 13.4604 61.4933 13.3629 62.1381 13.2749C62.7891 13.1806 63.4686 13.08 64.1766 12.9731L63.3612 13.4352C63.3675 12.7311 63.2095 12.2124 62.8871 11.8792C62.5647 11.546 62.0211 11.3794 61.2563 11.3794C60.7948 11.3794 60.3492 11.4863 59.9194 11.7C59.4895 11.9138 59.1893 12.2816 59.0186 12.8034L56.9327 12.1527C57.1855 11.2914 57.6659 10.5998 58.3739 10.078C59.0882 9.55622 60.049 9.29531 61.2563 9.29531C62.1665 9.29531 62.9661 9.44305 63.6551 9.73854C64.3504 10.034 64.8656 10.5181 65.2006 11.1908C65.3839 11.5492 65.4945 11.9169 65.5325 12.2942C65.5704 12.6651 65.5893 13.0706 65.5893 13.5107V19.763H63.5887V17.5563L63.9206 17.9146C63.4592 18.6502 62.9187 19.1909 62.2992 19.5367C61.6861 19.8762 60.9181 20.0459 59.9952 20.0459ZM60.4503 18.2353C60.9687 18.2353 61.4111 18.1441 61.7778 17.9618C62.1444 17.7795 62.4352 17.5563 62.6501 17.2922C62.8713 17.0282 63.0198 16.7799 63.0957 16.5472C63.2158 16.258 63.2822 15.928 63.2948 15.5571C63.3138 15.1798 63.3233 14.8749 63.3233 14.6423L64.0249 14.8498C63.3359 14.9567 62.7449 15.051 62.2518 15.1327C61.7588 15.2144 61.3353 15.293 60.9813 15.3685C60.6273 15.4376 60.3144 15.5162 60.0426 15.6042C59.7772 15.6985 59.5528 15.8085 59.3694 15.9343C59.1861 16.06 59.0439 16.2046 58.9428 16.3681C58.848 16.5315 58.8006 16.7233 58.8006 16.9433C58.8006 17.1948 58.8638 17.418 58.9902 17.6129C59.1166 17.8015 59.2999 17.9524 59.5401 18.0655C59.7866 18.1787 60.09 18.2353 60.4503 18.2353Z" fill="#191549"/>
<path d="M70.0768 19.763L66.36 9.57822H68.6451L71.2241 16.9622L73.7936 9.57822H76.0881L72.3713 19.763H70.0768Z" fill="#191549"/>
<path d="M77.6001 8.03165V5.94754H79.8852V8.03165H77.6001ZM77.6001 19.763V9.57822H79.8852V19.763H77.6001Z" fill="#191549"/>
<path d="M88.3479 19.763C87.6715 19.8887 87.0078 19.9422 86.3568 19.9233C85.712 19.9107 85.1336 19.7944 84.6216 19.5744C84.1096 19.3481 83.7209 18.9928 83.4554 18.5088C83.2215 18.0687 83.0983 17.6192 83.0856 17.1602C83.073 16.7013 83.0667 16.1826 83.0667 15.6042V6.74912H85.3422V15.4722C85.3422 15.8808 85.3454 16.2392 85.3517 16.5472C85.3644 16.8553 85.4307 17.1068 85.5508 17.3017C85.7784 17.6789 86.1418 17.8895 86.6412 17.9335C87.1406 17.9775 87.7095 17.9524 88.3479 17.8581V19.763ZM81.2083 11.3606V9.57822H88.3479V11.3606H81.2083Z" fill="#191549"/>
<path d="M91.2392 24.2896L93.2113 18.9048L93.2492 20.4891L88.7834 9.57822H91.1633L94.3301 17.6506H93.7233L96.8048 9.57822H99.0899L93.382 24.2896H91.2392Z" fill="#191549"/>
<path d="M103.007 19.763L99.0154 6.1833H101.414L104.135 15.9909L106.847 6.20216L109.246 6.1833L111.967 15.9909L114.679 6.1833H117.078L113.095 19.763H110.839L108.042 10.1063L105.264 19.763H103.007Z" fill="#191549"/>
<path d="M118.246 19.763V9.57822H120.265V12.0584L120.019 11.7378C120.145 11.3983 120.313 11.0902 120.521 10.8136C120.736 10.5307 120.992 10.2981 121.289 10.1158C121.542 9.94601 121.82 9.81398 122.124 9.71968C122.433 9.61909 122.749 9.55936 123.072 9.5405C123.394 9.51535 123.707 9.52793 124.01 9.57822V11.7C123.707 11.612 123.356 11.5837 122.958 11.6152C122.566 11.6466 122.212 11.7566 121.896 11.9452C121.58 12.115 121.321 12.3319 121.118 12.5959C120.923 12.86 120.777 13.1618 120.682 13.5012C120.588 13.8344 120.54 14.1959 120.54 14.5857V19.763H118.246Z" fill="#191549"/>
<path d="M125.63 8.03165V5.94754H127.915V8.03165H125.63ZM125.63 19.763V9.57822H127.915V19.763H125.63Z" fill="#191549"/>
<path d="M136.378 19.763C135.702 19.8887 135.038 19.9422 134.387 19.9233C133.742 19.9107 133.164 19.7944 132.652 19.5744C132.14 19.3481 131.751 18.9928 131.485 18.5088C131.252 18.0687 131.128 17.6192 131.116 17.1602C131.103 16.7013 131.097 16.1826 131.097 15.6042V6.74912H133.372V15.4722C133.372 15.8808 133.375 16.2392 133.382 16.5472C133.394 16.8553 133.461 17.1068 133.581 17.3017C133.808 17.6789 134.172 17.8895 134.671 17.9335C135.171 17.9775 135.739 17.9524 136.378 17.8581V19.763ZM129.238 11.3606V9.57822H136.378V11.3606H129.238Z" fill="#191549"/>
<path d="M142.337 20.0459C141.301 20.0459 140.391 19.8227 139.607 19.3763C138.823 18.93 138.21 18.3107 137.767 17.5186C137.331 16.7264 137.113 15.8148 137.113 14.7838C137.113 13.671 137.328 12.706 137.758 11.8887C138.188 11.0651 138.785 10.427 139.55 9.9743C140.315 9.52164 141.2 9.29531 142.205 9.29531C143.267 9.29531 144.167 9.54364 144.907 10.0403C145.653 10.5307 146.206 11.2254 146.566 12.1244C146.927 13.0234 147.062 14.0828 146.974 15.3024H144.708V14.4726C144.702 13.3661 144.506 12.5582 144.12 12.049C143.734 11.5397 143.128 11.2851 142.3 11.2851C141.364 11.2851 140.669 11.5743 140.214 12.1527C139.758 12.7248 139.531 13.5641 139.531 14.6706C139.531 15.7017 139.758 16.5001 140.214 17.0659C140.669 17.6317 141.332 17.9146 142.205 17.9146C142.767 17.9146 143.251 17.792 143.655 17.5469C144.066 17.2954 144.382 16.9339 144.604 16.4624L146.86 17.1414C146.468 18.0592 145.861 18.7728 145.04 19.282C144.224 19.7913 143.324 20.0459 142.337 20.0459ZM138.81 15.3024V13.5861H145.855V15.3024H138.81Z" fill="#191549"/>
<defs>
<clipPath id="clip0_54_161025">
<rect width="29.3066" height="23.8704" fill="white" transform="translate(0 0.902832)"/>
</clipPath>
</defs>
</svg>
