<svg width="29" height="28" viewBox="0 0 29 28" fill="none" xmlns="http://www.w3.org/2000/svg">
<path d="M0 28L4.15173 26.5517L1.01379 25.1035L0 28Z" fill="#F7B600"/>
<path d="M12.0198 16.1242L6.17841 10.2345L5.21289 12.9379L12.0198 16.1242Z" fill="#FFDD7D"/>
<path d="M5.21441 12.9379L4.15234 15.9793L17.0903 22.0138L17.7179 21.8207L12.0213 16.1241L5.21441 12.9379Z" fill="#F7B600"/>
<path d="M3.13867 19.0207L12.7938 23.5103L17.0904 22.0138L4.15247 15.9793L3.13867 19.0207Z" fill="#FFDD7D"/>
<path d="M2.07617 22.0621L8.44859 25.0552L12.7934 23.5103L3.13824 19.0207L2.07617 22.0621Z" fill="#F7B600"/>
<path d="M2.07574 22.0621L1.01367 25.1035L4.1516 26.5517L8.44816 25.0552L2.07574 22.0621Z" fill="#FFDD7D"/>
<path d="M14.4337 13.6138C17.6682 16.8 19.3579 20.3725 18.1992 21.5311C16.9923 22.6897 13.4199 21.0483 10.1372 17.8138C6.90267 14.6276 5.21302 11.0552 6.37164 9.89659C7.57853 8.73797 11.151 10.4276 14.4337 13.6138Z" fill="#493816"/>
<path d="M10.3785 5.55175C9.6061 4.44141 10.4268 3.95865 11.4889 4.15175C10.4751 2.94486 11.1027 2.07589 12.6958 2.41382C13.1785 2.51037 12.5027 3.33106 12.0682 3.33106C13.3716 4.29658 12.6475 5.35865 11.2475 5.11727C12.5027 6.80693 10.3785 6.37244 9.413 6.469C9.17162 7.72417 10.6199 9.17245 10.1371 9.17245C9.07506 9.17245 7.33713 5.16555 10.3785 5.55175Z" fill="#42ADE2"/>
<path d="M20.5174 7.86903C19.7932 8.20696 17.7657 5.02075 20.276 4.97248C18.8277 3.66903 19.0208 3.04144 20.9519 2.99317C18.7312 0.772475 22.2553 6.04391e-05 22.5932 1.15868C22.6898 1.49661 21.5312 0.869026 21.145 1.49661C20.7105 2.22075 23.8484 4.10351 20.6139 3.95868C21.8208 5.16558 21.8691 5.74489 19.9863 5.93799C20.2277 6.3242 21.0001 7.67593 20.5174 7.86903Z" fill="#FF8736"/>
<path d="M21.3389 15.4L22.063 14.7725C22.063 14.7725 22.7389 15.7862 23.2216 16.1725C23.6078 14.4345 23.5113 13.4207 25.4906 14.5793C24.3802 11.5862 26.2147 12.6966 28.0009 13.5173C27.9044 12.7449 28.0009 12.8414 28.7734 12.6C29.4492 15.1587 27.6147 14.3862 26.1665 13.5656C27.0354 15.8828 26.1182 15.738 24.2837 14.9656C24.2354 15.9311 23.9458 17.0414 23.3665 17.138C22.6906 17.3311 21.3389 15.4 21.3389 15.4Z" fill="#ED4C5C"/>
<path d="M15.9319 8.25518C15.0629 9.4138 13.6629 10.0414 12.6491 11.0552C11.5871 12.1172 10.9595 15.0138 10.9595 15.0138C10.9595 15.0138 11.3457 11.9724 12.3595 10.8138C13.2767 9.75173 14.6284 8.97931 15.3526 7.77242C16.6077 5.55173 15.4491 2.65517 13.8077 0.965518C14.1457 0.675862 14.6284 0.289655 14.8698 0C16.4629 1.97931 17.8146 5.79311 15.9319 8.25518Z" fill="#C28FEF"/>
<path d="M17.4282 10.7173C16.173 11.6345 15.2558 12.9862 14.3868 14.2414C13.6144 15.3518 11.1523 16.7518 11.1523 16.7518C11.1523 16.7518 13.4696 15.1587 14.1937 14C15.0627 12.5518 15.9317 11.0552 17.2834 9.99314C19.9868 7.91728 23.8972 8.11038 26.9386 9.22073C26.7455 9.65521 26.4075 10.5725 26.4075 10.5725C26.4075 10.5725 19.9868 8.83452 17.4282 10.7173Z" fill="#FF8736"/>
<path d="M22.7866 10.4758C21.9659 11.5379 21.5797 12.8414 20.9521 14.0483C20.3728 15.1586 19.6003 16.2207 18.49 16.8C17.2348 17.4276 14.4831 17.2345 14.4831 17.2345C14.4831 17.2345 17.2348 17.1862 18.3934 16.4138C19.5521 15.6414 20.1797 14.2896 20.6141 13.0345C21.4831 10.6207 22.5452 8.01378 25.0555 6.95171C25.2003 7.38619 25.5383 8.30343 25.5383 8.30343C25.5383 8.30343 24.1383 8.68964 22.7866 10.4758ZM0.584473 5.46723L1.94971 4.1015L3.31544 5.46674L1.9502 6.83295L0.584473 5.46723Z" fill="#42ADE2"/>
<path d="M2.49805 9.75025L3.86281 8.38501L5.22805 9.75025L3.86281 11.1155L2.49805 9.75025Z" fill="#FF8736"/>
<path d="M5.96533 3.29334L7.33057 1.9281L8.69582 3.29334L7.33057 4.65858L5.96533 3.29334Z" fill="#ED4C5C"/>
<path d="M20.8584 19.6464L22.2236 18.2806L23.5889 19.6464L22.2236 21.0116L20.8584 19.6464Z" fill="#C28FEF"/>
<path d="M17.8149 24.3262L19.1802 22.9609L20.5459 24.3267L19.1802 25.6919L17.8149 24.3262Z" fill="#ED4C5C"/>
<path d="M23.7896 25.3965L25.1548 24.0308L26.52 25.3965L25.1548 26.7617L23.7896 25.3965Z" fill="#FF8736"/>
<path d="M25.1409 19.1805L26.5062 17.8152L27.8714 19.1805L26.5062 20.5462L25.1409 19.1805ZM22.8613 4.74213L24.2266 3.3764L25.5923 4.74213L24.2271 6.10737L22.8613 4.74213Z" fill="#42ADE2"/>
<path d="M8.22852 12.9341L9.59424 11.5688L10.9595 12.9341L9.59424 14.2998L8.22852 12.9341Z" fill="#ED4C5C"/>
</svg>
