<svg width="193" height="200" viewBox="0 0 193 200" fill="none" xmlns="http://www.w3.org/2000/svg">
<g clip-path="url(#clip0_142_31036)">
<g filter="url(#filter0_d_142_31036)">
<mask id="mask0_142_31036" style="mask-type:luminance" maskUnits="userSpaceOnUse" x="0" y="0" width="193" height="200">
<path d="M187.719 0.485352H5.28146C2.62995 0.485352 0.480469 2.65873 0.480469 5.33972V194.66C0.480469 197.341 2.62995 199.514 5.28146 199.514H187.719C190.371 199.514 192.52 197.341 192.52 194.66V5.33972C192.52 2.65873 190.371 0.485352 187.719 0.485352Z" fill="white"/>
</mask>
<g mask="url(#mask0_142_31036)">
<path d="M187.719 0.485352H5.28146C2.62995 0.485352 0.480469 2.65873 0.480469 5.33972V194.66C0.480469 197.341 2.62995 199.514 5.28146 199.514H187.719C190.371 199.514 192.52 197.341 192.52 194.66V5.33972C192.52 2.65873 190.371 0.485352 187.719 0.485352Z" fill="white"/>
<path d="M0.480469 12.8638H192.52" stroke="#CFD6E1"/>
<path d="M6.72155 8.25247C7.517 8.25247 8.16185 7.60045 8.16185 6.79615C8.16185 5.99186 7.517 5.33984 6.72155 5.33984C5.92609 5.33984 5.28125 5.99186 5.28125 6.79615C5.28125 7.60045 5.92609 8.25247 6.72155 8.25247Z" fill="#EE5687"/>
<path d="M11.0428 8.25247C11.8383 8.25247 12.4831 7.60045 12.4831 6.79615C12.4831 5.99186 11.8383 5.33984 11.0428 5.33984C10.2474 5.33984 9.60254 5.99186 9.60254 6.79615C9.60254 7.60045 10.2474 8.25247 11.0428 8.25247Z" fill="#FF8F3D"/>
<path d="M15.3636 8.25247C16.1591 8.25247 16.8039 7.60045 16.8039 6.79615C16.8039 5.99186 16.1591 5.33984 15.3636 5.33984C14.5682 5.33984 13.9233 5.99186 13.9233 6.79615C13.9233 7.60045 14.5682 8.25247 15.3636 8.25247Z" fill="#249707"/>
<path d="M14.4035 33.9804C18.1156 33.9804 21.1249 30.9377 21.1249 27.1843C21.1249 23.4309 18.1156 20.3882 14.4035 20.3882C10.6914 20.3882 7.68213 23.4309 7.68213 27.1843C7.68213 30.9377 10.6914 33.9804 14.4035 33.9804Z" fill="#FFE9E9"/>
<path d="M43.6895 25.728H27.3661C26.5706 25.728 25.9258 26.38 25.9258 27.1843C25.9258 27.9886 26.5706 28.6406 27.3661 28.6406H43.6895C44.4849 28.6406 45.1298 27.9886 45.1298 27.1843C45.1298 26.38 44.4849 25.728 43.6895 25.728Z" fill="#E5E6FA"/>
<path d="M76.3363 25.728H62.4134C61.618 25.728 60.9731 26.38 60.9731 27.1843C60.9731 27.9886 61.618 28.6406 62.4134 28.6406H76.3363C77.1318 28.6406 77.7766 27.9886 77.7766 27.1843C77.7766 26.38 77.1318 25.728 76.3363 25.728Z" fill="#EBEDFF"/>
<path d="M97.9408 25.728H84.0179C83.2225 25.728 82.5776 26.38 82.5776 27.1843C82.5776 27.9886 83.2225 28.6406 84.0179 28.6406H97.9408C98.7363 28.6406 99.3811 27.9886 99.3811 27.1843C99.3811 26.38 98.7363 25.728 97.9408 25.728Z" fill="#EBEDFF"/>
<path d="M119.545 25.728H105.622C104.827 25.728 104.182 26.38 104.182 27.1843C104.182 27.9886 104.827 28.6406 105.622 28.6406H119.545C120.341 28.6406 120.986 27.9886 120.986 27.1843C120.986 26.38 120.341 25.728 119.545 25.728Z" fill="#EBEDFF"/>
<path d="M141.15 25.728H127.227C126.431 25.728 125.787 26.38 125.787 27.1843C125.787 27.9886 126.431 28.6406 127.227 28.6406H141.15C141.945 28.6406 142.59 27.9886 142.59 27.1843C142.59 26.38 141.945 25.728 141.15 25.728Z" fill="#EBEDFF"/>
<path d="M180.518 21.8447H163.714C160.798 21.8447 158.433 24.2354 158.433 27.1845C158.433 30.1336 160.798 32.5243 163.714 32.5243H180.518C183.434 32.5243 185.799 30.1336 185.799 27.1845C185.799 24.2354 183.434 21.8447 180.518 21.8447Z" fill="#C5CAFF"/>
<path d="M181.478 41.2622H11.5229C9.40171 41.2622 7.68213 43.0009 7.68213 45.1457V100.486C7.68213 102.63 9.40171 104.369 11.5229 104.369H181.478C183.599 104.369 185.319 102.63 185.319 100.486V45.1457C185.319 43.0009 183.599 41.2622 181.478 41.2622Z" fill="#EBEDFF"/>
<path d="M37.448 87.3784H19.6843C17.0328 87.3784 14.8833 89.5518 14.8833 92.2328C14.8833 94.9138 17.0328 97.0872 19.6843 97.0872H37.448C40.0995 97.0872 42.249 94.9138 42.249 92.2328C42.249 89.5518 40.0995 87.3784 37.448 87.3784Z" fill="#C5CAFF"/>
<path d="M66.254 48.5435H16.3236C15.5281 48.5435 14.8833 49.1955 14.8833 49.9998V58.2522C14.8833 59.0565 15.5281 59.7085 16.3236 59.7085H66.254C67.0494 59.7085 67.6942 59.0565 67.6942 58.2522V49.9998C67.6942 49.1955 67.0494 48.5435 66.254 48.5435Z" fill="#DFE2FF"/>
<path d="M80.6569 66.9902H16.3236C15.5281 66.9902 14.8833 67.6422 14.8833 68.4465C14.8833 69.2508 15.5281 69.9029 16.3236 69.9029H80.6569C81.4524 69.9029 82.0972 69.2508 82.0972 68.4465C82.0972 67.6422 81.4524 66.9902 80.6569 66.9902Z" fill="#DADEFF"/>
<path d="M80.6569 72.3301H16.3236C15.5281 72.3301 14.8833 72.9821 14.8833 73.7864C14.8833 74.5907 15.5281 75.2427 16.3236 75.2427H80.6569C81.4524 75.2427 82.0972 74.5907 82.0972 73.7864C82.0972 72.9821 81.4524 72.3301 80.6569 72.3301Z" fill="#DADEFF"/>
<path d="M56.652 77.6699H16.3236C15.5281 77.6699 14.8833 78.3219 14.8833 79.1262C14.8833 79.9305 15.5281 80.5825 16.3236 80.5825H56.652C57.4474 80.5825 58.0923 79.9305 58.0923 79.1262C58.0923 78.3219 57.4474 77.6699 56.652 77.6699Z" fill="#DADEFF"/>
<path d="M174.276 48.5435H105.142C103.021 48.5435 101.301 50.2822 101.301 52.427V93.2036C101.301 95.3484 103.021 97.0871 105.142 97.0871H174.276C176.398 97.0871 178.117 95.3484 178.117 93.2036V52.427C178.117 50.2822 176.398 48.5435 174.276 48.5435Z" fill="#DFE2FF"/>
<path d="M126.266 114.078H66.7341C65.1432 114.078 63.8535 115.382 63.8535 116.99C63.8535 118.599 65.1432 119.903 66.7341 119.903H126.266C127.857 119.903 129.147 118.599 129.147 116.99C129.147 115.382 127.857 114.078 126.266 114.078Z" fill="#E2E5FF"/>
<path d="M138.269 124.757H54.7318C53.9363 124.757 53.2915 125.409 53.2915 126.214C53.2915 127.018 53.9363 127.67 54.7318 127.67H138.269C139.065 127.67 139.709 127.018 139.709 126.214C139.709 125.409 139.065 124.757 138.269 124.757Z" fill="#E2E5FF"/>
<path d="M62.8933 133.738H19.6844C18.4912 133.738 17.5239 134.716 17.5239 135.922V183.981C17.5239 185.187 18.4912 186.165 19.6844 186.165H62.8933C64.0865 186.165 65.0538 185.187 65.0538 183.981V135.922C65.0538 134.716 64.0865 133.738 62.8933 133.738Z" fill="white" stroke="#FFDDD3"/>
<path d="M58.5725 138.35H24.0054C22.9448 138.35 22.085 139.219 22.085 140.291V160.68C22.085 161.752 22.9448 162.621 24.0054 162.621H58.5725C59.6331 162.621 60.4929 161.752 60.4929 160.68V140.291C60.4929 139.219 59.6331 138.35 58.5725 138.35Z" fill="#FFF4E8"/>
<path d="M51.8511 166.02H23.5253C22.7298 166.02 22.085 166.672 22.085 167.476C22.085 168.28 22.7298 168.932 23.5253 168.932H51.8511C52.6466 168.932 53.2914 168.28 53.2914 167.476C53.2914 166.672 52.6466 166.02 51.8511 166.02Z" fill="#FFF4E8"/>
<path d="M39.8486 171.359H23.5253C22.7298 171.359 22.085 172.011 22.085 172.816C22.085 173.62 22.7298 174.272 23.5253 174.272H39.8486C40.6441 174.272 41.2889 173.62 41.2889 172.816C41.2889 172.011 40.6441 171.359 39.8486 171.359Z" fill="#FFF4E8"/>
<path d="M38.8884 176.699H24.4855C23.1597 176.699 22.085 177.785 22.085 179.126C22.085 180.466 23.1597 181.553 24.4855 181.553H38.8884C40.2142 181.553 41.2889 180.466 41.2889 179.126C41.2889 177.785 40.2142 176.699 38.8884 176.699Z" fill="#FED4A5"/>
<path d="M118.105 133.738H74.8958C73.7026 133.738 72.7354 134.716 72.7354 135.922V183.981C72.7354 185.187 73.7026 186.165 74.8958 186.165H118.105C119.298 186.165 120.265 185.187 120.265 183.981V135.922C120.265 134.716 119.298 133.738 118.105 133.738Z" fill="white" stroke="#B1FED1"/>
<path d="M113.784 138.35H79.2168C78.1562 138.35 77.2964 139.219 77.2964 140.291V160.68C77.2964 161.752 78.1562 162.621 79.2168 162.621H113.784C114.845 162.621 115.704 161.752 115.704 160.68V140.291C115.704 139.219 114.845 138.35 113.784 138.35Z" fill="#E5FEF0"/>
<path d="M107.063 166.02H78.7367C77.9412 166.02 77.2964 166.672 77.2964 167.476C77.2964 168.28 77.9412 168.932 78.7367 168.932H107.063C107.858 168.932 108.503 168.28 108.503 167.476C108.503 166.672 107.858 166.02 107.063 166.02Z" fill="#E5FEF0"/>
<path d="M95.0601 171.359H78.7367C77.9412 171.359 77.2964 172.011 77.2964 172.816C77.2964 173.62 77.9412 174.272 78.7367 174.272H95.0601C95.8555 174.272 96.5004 173.62 96.5004 172.816C96.5004 172.011 95.8555 171.359 95.0601 171.359Z" fill="#E5FEF0"/>
<path d="M94.0999 176.699H79.6969C78.3711 176.699 77.2964 177.785 77.2964 179.126C77.2964 180.466 78.3711 181.553 79.6969 181.553H94.0999C95.4256 181.553 96.5004 180.466 96.5004 179.126C96.5004 177.785 95.4256 176.699 94.0999 176.699Z" fill="#ABEFC8"/>
<path d="M173.316 133.738H130.107C128.914 133.738 127.947 134.716 127.947 135.922V183.981C127.947 185.187 128.914 186.165 130.107 186.165H173.316C174.509 186.165 175.477 185.187 175.477 183.981V135.922C175.477 134.716 174.509 133.738 173.316 133.738Z" fill="white" stroke="#F5BFFF"/>
<path d="M168.995 138.35H134.428C133.368 138.35 132.508 139.219 132.508 140.291V160.68C132.508 161.752 133.368 162.621 134.428 162.621H168.995C170.056 162.621 170.916 161.752 170.916 160.68V140.291C170.916 139.219 170.056 138.35 168.995 138.35Z" fill="#FBE2FF"/>
<path d="M162.274 166.02H133.948C133.153 166.02 132.508 166.672 132.508 167.476C132.508 168.28 133.153 168.932 133.948 168.932H162.274C163.069 168.932 163.714 168.28 163.714 167.476C163.714 166.672 163.069 166.02 162.274 166.02Z" fill="#FBE2FF"/>
<path d="M150.271 171.359H133.948C133.153 171.359 132.508 172.011 132.508 172.816C132.508 173.62 133.153 174.272 133.948 174.272H150.271C151.067 174.272 151.712 173.62 151.712 172.816C151.712 172.011 151.067 171.359 150.271 171.359Z" fill="#FBE2FF"/>
<path d="M149.311 176.699H134.908C133.583 176.699 132.508 177.785 132.508 179.126C132.508 180.466 133.583 181.553 134.908 181.553H149.311C150.637 181.553 151.712 180.466 151.712 179.126C151.712 177.785 150.637 176.699 149.311 176.699Z" fill="#F09EFF"/>
<path opacity="0.8" d="M96.5004 127.67C111.614 127.67 123.866 115.282 123.866 100C123.866 84.7183 111.614 72.3301 96.5004 72.3301C81.3868 72.3301 69.1348 84.7183 69.1348 100C69.1348 115.282 81.3868 127.67 96.5004 127.67Z" fill="white"/>
<path opacity="0.75" d="M96.5005 121.845C108.432 121.845 118.105 112.064 118.105 99.9999C118.105 87.9355 108.432 78.1553 96.5005 78.1553C84.5687 78.1553 74.896 87.9355 74.896 99.9999C74.896 112.064 84.5687 121.845 96.5005 121.845Z" stroke="url(#paint0_linear_142_31036)" stroke-width="4" stroke-linecap="round" stroke-dasharray="23 23"/>
<path d="M99.6558 98.0034C104.689 98.3462 104.954 98.6238 105.28 103.914C105.606 98.6238 105.87 98.3462 110.904 98.0034C105.87 97.6607 105.606 97.3831 105.28 92.0928C104.954 97.3831 104.689 97.6607 99.6558 98.0034Z" fill="url(#paint1_linear_142_31036)"/>
<path d="M82.0972 94.6758C89.9646 95.2113 90.3774 95.6453 90.8873 103.914C91.3967 95.6453 91.8101 95.2113 99.6775 94.6758C91.8101 94.1399 91.3967 93.7059 90.8873 85.437C90.3774 93.7059 89.9646 94.1399 82.0972 94.6758Z" fill="url(#paint2_linear_142_31036)"/>
<path d="M89.4658 105.809C96.9213 106.316 97.3126 106.727 97.7955 114.563C98.2785 106.727 98.6698 106.316 106.125 105.809C98.6698 105.301 98.2785 104.889 97.7955 97.0537C97.3126 104.889 96.9213 105.301 89.4658 105.809Z" fill="url(#paint3_linear_142_31036)"/>
</g>
<path d="M187.719 0.242676H5.28128C2.49719 0.242676 0.240234 2.52472 0.240234 5.33976V194.66C0.240234 197.475 2.49719 199.757 5.28128 199.757H187.719C190.503 199.757 192.76 197.475 192.76 194.66V5.33976C192.76 2.52472 190.503 0.242676 187.719 0.242676Z" stroke="url(#paint4_linear_142_31036)"/>
</g>
</g>
<defs>
<filter id="filter0_d_142_31036" x="-20.2598" y="-16.2573" width="233.52" height="240.515" filterUnits="userSpaceOnUse" color-interpolation-filters="sRGB">
<feFlood flood-opacity="0" result="BackgroundImageFix"/>
<feColorMatrix in="SourceAlpha" type="matrix" values="0 0 0 0 0 0 0 0 0 0 0 0 0 0 0 0 0 0 127 0" result="hardAlpha"/>
<feOffset dy="4"/>
<feGaussianBlur stdDeviation="10"/>
<feComposite in2="hardAlpha" operator="out"/>
<feColorMatrix type="matrix" values="0 0 0 0 0 0 0 0 0 0 0 0 0 0 0 0 0 0 0.1 0"/>
<feBlend mode="normal" in2="BackgroundImageFix" result="effect1_dropShadow_142_31036"/>
<feBlend mode="normal" in="SourceGraphic" in2="effect1_dropShadow_142_31036" result="shape"/>
</filter>
<linearGradient id="paint0_linear_142_31036" x1="66.9364" y1="63.5922" x2="116.539" y2="130.904" gradientUnits="userSpaceOnUse">
<stop stop-color="#CC11EA"/>
<stop offset="1" stop-color="#2E42FF"/>
</linearGradient>
<linearGradient id="paint1_linear_142_31036" x1="101.07" y1="90.2607" x2="110.104" y2="103.959" gradientUnits="userSpaceOnUse">
<stop stop-color="#C13EFF"/>
<stop offset="1" stop-color="#2E42FF"/>
</linearGradient>
<linearGradient id="paint2_linear_142_31036" x1="84.3075" y1="82.5734" x2="98.4269" y2="103.983" gradientUnits="userSpaceOnUse">
<stop stop-color="#C13EFF"/>
<stop offset="1" stop-color="#2E42FF"/>
</linearGradient>
<linearGradient id="paint3_linear_142_31036" x1="91.5605" y1="94.3401" x2="104.94" y2="114.629" gradientUnits="userSpaceOnUse">
<stop stop-color="#C13EFF"/>
<stop offset="1" stop-color="#2E42FF"/>
</linearGradient>
<linearGradient id="paint4_linear_142_31036" x1="-43.6889" y1="-90.7767" x2="251.623" y2="268.892" gradientUnits="userSpaceOnUse">
<stop stop-color="#C13EFF"/>
<stop offset="1" stop-color="#2E42FF"/>
</linearGradient>
<clipPath id="clip0_142_31036">
<rect width="193" height="200" fill="white"/>
</clipPath>
</defs>
</svg>
