<svg width="20" height="20" viewBox="0 0 16 16" fill="none" xmlns="http://www.w3.org/2000/svg">
<g clip-path="url(#clip0_605_14160)">
<path d="M1.20566 6.29318C1.33683 6.47466 1.52193 6.61103 1.73398 6.68207L2.97832 7.08754C3.35318 7.21259 3.68249 7.4461 3.92454 7.75849C4.06245 7.93686 4.16926 8.137 4.23977 8.35167L4.6504 9.61164C4.72358 9.82277 4.86083 10.0058 5.043 10.1352C5.22517 10.2646 5.44317 10.3339 5.66661 10.3334C5.89053 10.3343 6.10908 10.2649 6.29137 10.1348C6.47439 10 6.61282 9.81334 6.68904 9.5992L7.09397 8.35374C7.19248 8.06026 7.35735 7.79375 7.57615 7.5739C7.79348 7.35563 8.05896 7.19136 8.35127 7.09428L9.61842 6.68258C9.77477 6.62681 9.91611 6.53563 10.0314 6.41617C10.1466 6.2967 10.2327 6.15219 10.2829 5.99394C10.333 5.83568 10.3459 5.66797 10.3205 5.50391C10.2951 5.33985 10.2321 5.1839 10.1364 5.04824C9.99814 4.8553 9.80143 4.71203 9.57539 4.63966L8.32794 4.23574C8.03453 4.13858 7.76786 3.97428 7.54913 3.7559C7.33041 3.53752 7.16568 3.2711 7.06804 2.97783L6.65638 1.71267C6.58276 1.50331 6.44576 1.32208 6.26441 1.19416C6.08156 1.06773 5.86454 1 5.64224 1C5.41994 1 5.20292 1.06773 5.02007 1.19416C4.83367 1.32528 4.69385 1.51233 4.62085 1.72823L4.2071 3.00168C4.10942 3.28641 3.94862 3.54536 3.73673 3.75915C3.52483 3.97295 3.26734 4.13605 2.98351 4.23626L1.71843 4.64588C1.56041 4.70166 1.41759 4.79355 1.30132 4.91425C1.18506 5.03494 1.09857 5.1811 1.04873 5.34111C0.998892 5.50111 0.987078 5.67054 1.01423 5.83591C1.04138 6.00128 1.10675 6.15804 1.20514 6.2937M5.67076 9.29639H5.66454C5.65734 9.29643 5.6503 9.29434 5.64429 9.29037C5.63829 9.2864 5.63361 9.28073 5.63083 9.27409L5.22539 8.03019L5.22487 8.0276C5.11754 7.70091 4.95497 7.39505 4.74424 7.12332L4.74321 7.12176C4.37589 6.64813 3.8765 6.29395 3.30807 6.10393L3.30392 6.10289L2.06321 5.69897C2.05583 5.69587 2.04949 5.69069 2.04499 5.68406C2.04048 5.67744 2.03798 5.66965 2.03781 5.66164C2.03795 5.65408 2.04014 5.64671 2.04416 5.64031C2.04818 5.63392 2.05387 5.62874 2.06062 5.62534L3.31533 5.21831L3.32829 5.21365C3.75973 5.06139 4.15113 4.8135 4.4732 4.48854C4.79527 4.16358 5.03965 3.76996 5.18806 3.33716L5.19065 3.32938L5.60439 2.05852C5.60647 2.05299 5.60958 2.04832 5.61372 2.04452C5.62239 2.03951 5.63223 2.03688 5.64224 2.03688C5.65225 2.03688 5.66209 2.03951 5.67076 2.04452C5.67352 2.04694 5.6756 2.05005 5.67698 2.05385L6.08242 3.29827L6.0845 3.30449C6.23302 3.75116 6.4838 4.15697 6.81685 4.48959C7.14989 4.82222 7.55601 5.07246 8.00285 5.22039L9.25549 5.62638L9.25963 5.62742C9.27188 5.63154 9.28267 5.6391 9.29074 5.64919C9.29472 5.65533 9.29674 5.66253 9.29656 5.66984C9.29637 5.67714 9.29398 5.68423 9.28971 5.69016L9.28919 5.69119C9.28501 5.69626 9.27991 5.70048 9.27415 5.70364L8.03085 6.10807L8.02463 6.11015C7.57849 6.25819 7.17326 6.50877 6.84147 6.84177C6.51024 7.17466 6.2601 7.57936 6.11042 8.02449L6.10939 8.02915L5.71016 9.25698C5.70425 9.27082 5.69541 9.2832 5.68424 9.29328L5.67076 9.29639ZM12.7459 9.73246C12.8056 9.90987 12.9057 10.071 13.0383 10.2031C13.1709 10.3352 13.3324 10.4346 13.5101 10.4936L14.3682 10.7736C14.549 10.8297 14.7075 10.9416 14.8209 11.0932C14.9344 11.2448 14.997 11.4284 14.9999 11.6177C15.0028 11.807 14.9457 11.9924 14.8369 12.1474C14.7281 12.3024 14.5731 12.419 14.3941 12.4806L13.5267 12.7637C13.3488 12.8221 13.1872 12.9215 13.0549 13.054C12.9226 13.1872 12.8227 13.349 12.763 13.5269L12.484 14.3824C12.4217 14.5638 12.3037 14.7209 12.147 14.8315C11.9967 14.9395 11.8167 14.9983 11.6317 15C11.445 15.0007 11.2627 14.9431 11.1103 14.8353C10.9578 14.7275 10.8429 14.5748 10.7814 14.3985L10.4972 13.5295C10.4393 13.3509 10.34 13.1885 10.2074 13.0556C10.0741 12.9228 9.91191 12.8225 9.73352 12.7626L8.87648 12.4852C8.69476 12.4233 8.53737 12.3053 8.42696 12.1482C8.34582 12.0346 8.29227 11.9037 8.27056 11.7658C8.24885 11.6279 8.25959 11.4868 8.30191 11.3538C8.34424 11.2208 8.41698 11.0995 8.51438 10.9995C8.61178 10.8995 8.73114 10.8236 8.863 10.7778L9.73456 10.4936C9.90895 10.4322 10.0669 10.3315 10.1963 10.1993C10.3256 10.0672 10.4229 9.9071 10.4806 9.73142L10.758 8.87588C10.8021 8.74202 10.8771 8.62042 10.9768 8.52091C11.0766 8.4214 11.1984 8.34676 11.3324 8.30305C11.4664 8.25933 11.6087 8.24776 11.748 8.26927C11.8873 8.29077 12.0195 8.34476 12.1341 8.42685C12.287 8.53418 12.4021 8.68714 12.4628 8.86343L12.7459 9.73246ZM13.1829 11.4778C12.8528 11.3681 12.5526 11.1831 12.3062 10.9376C12.0597 10.692 11.8737 10.3925 11.7628 10.0627L11.7613 10.0581L11.6125 9.60179L11.4647 10.0581C11.3558 10.3847 11.1744 10.6824 10.9338 10.9287L10.9312 10.9312C10.6922 11.1743 10.4006 11.3593 10.0788 11.4721L10.0674 11.4757L9.5982 11.6286L10.0581 11.7775L10.0633 11.7795C10.393 11.89 10.6927 12.0751 10.9395 12.3209L10.9405 12.3219C11.1894 12.5708 11.375 12.8741 11.4834 13.2085L11.4839 13.2106L11.6301 13.6565L11.7784 13.2013L11.7799 13.1971C11.8904 12.8686 12.0749 12.5698 12.3191 12.324C12.5673 12.0746 12.8709 11.8875 13.2052 11.778L13.6542 11.6312L13.1829 11.4778Z" fill="#2E42FF"/>
<path d="M1.20566 6.29318C1.33683 6.47466 1.52193 6.61103 1.73398 6.68207L2.97832 7.08754C3.35318 7.21259 3.68249 7.4461 3.92454 7.75849C4.06245 7.93686 4.16926 8.137 4.23977 8.35167L4.6504 9.61164C4.72358 9.82277 4.86083 10.0058 5.043 10.1352C5.22517 10.2646 5.44317 10.3339 5.66661 10.3334C5.89053 10.3343 6.10908 10.2649 6.29137 10.1348C6.47439 10 6.61282 9.81334 6.68904 9.5992L7.09397 8.35374C7.19248 8.06026 7.35735 7.79375 7.57615 7.5739C7.79348 7.35563 8.05896 7.19136 8.35127 7.09428L9.61842 6.68258C9.77477 6.62681 9.91611 6.53563 10.0314 6.41617C10.1466 6.2967 10.2327 6.15219 10.2829 5.99394C10.333 5.83568 10.3459 5.66797 10.3205 5.50391C10.2951 5.33985 10.2321 5.1839 10.1364 5.04824C9.99814 4.8553 9.80143 4.71203 9.57539 4.63966L8.32794 4.23574C8.03453 4.13858 7.76786 3.97428 7.54913 3.7559C7.33041 3.53752 7.16568 3.2711 7.06804 2.97783L6.65638 1.71267C6.58276 1.50331 6.44576 1.32208 6.26441 1.19416C6.08156 1.06773 5.86454 1 5.64224 1C5.41994 1 5.20292 1.06773 5.02007 1.19416C4.83367 1.32528 4.69385 1.51233 4.62085 1.72823L4.2071 3.00168C4.10942 3.28641 3.94862 3.54536 3.73673 3.75915C3.52483 3.97295 3.26734 4.13605 2.98351 4.23626L1.71843 4.64588C1.56041 4.70166 1.41759 4.79355 1.30132 4.91425C1.18506 5.03494 1.09857 5.1811 1.04873 5.34111C0.998892 5.50111 0.987078 5.67054 1.01423 5.83591C1.04138 6.00128 1.10675 6.15804 1.20514 6.2937M5.67076 9.29639H5.66454C5.65734 9.29643 5.6503 9.29434 5.64429 9.29037C5.63829 9.2864 5.63361 9.28073 5.63083 9.27409L5.22539 8.03019L5.22487 8.0276C5.11754 7.70091 4.95497 7.39505 4.74424 7.12332L4.74321 7.12176C4.37589 6.64813 3.8765 6.29395 3.30807 6.10393L3.30392 6.10289L2.06321 5.69897C2.05583 5.69587 2.04949 5.69069 2.04499 5.68406C2.04048 5.67744 2.03798 5.66965 2.03781 5.66164C2.03795 5.65408 2.04014 5.64671 2.04416 5.64031C2.04818 5.63392 2.05387 5.62874 2.06062 5.62534L3.31533 5.21831L3.32829 5.21365C3.75973 5.06139 4.15113 4.8135 4.4732 4.48854C4.79527 4.16358 5.03965 3.76996 5.18806 3.33716L5.19065 3.32938L5.60439 2.05852C5.60647 2.05299 5.60958 2.04832 5.61372 2.04452C5.62239 2.03951 5.63223 2.03688 5.64224 2.03688C5.65225 2.03688 5.66209 2.03951 5.67076 2.04452C5.67352 2.04694 5.6756 2.05005 5.67698 2.05385L6.08242 3.29827L6.0845 3.30449C6.23302 3.75116 6.4838 4.15697 6.81685 4.48959C7.14989 4.82222 7.55601 5.07246 8.00285 5.22039L9.25549 5.62638L9.25963 5.62742C9.27188 5.63154 9.28267 5.6391 9.29074 5.64919C9.29472 5.65533 9.29674 5.66253 9.29656 5.66984C9.29637 5.67714 9.29398 5.68423 9.28971 5.69016L9.28919 5.69119C9.28501 5.69626 9.27991 5.70048 9.27415 5.70364L8.03085 6.10807L8.02463 6.11015C7.57849 6.25819 7.17326 6.50877 6.84147 6.84177C6.51024 7.17466 6.2601 7.57936 6.11042 8.02449L6.10939 8.02915L5.71016 9.25698C5.70425 9.27082 5.69541 9.2832 5.68424 9.29328L5.67076 9.29639ZM12.7459 9.73246C12.8056 9.90987 12.9057 10.071 13.0383 10.2031C13.1709 10.3352 13.3324 10.4346 13.5101 10.4936L14.3682 10.7736C14.549 10.8297 14.7075 10.9416 14.8209 11.0932C14.9344 11.2448 14.997 11.4284 14.9999 11.6177C15.0028 11.807 14.9457 11.9924 14.8369 12.1474C14.7281 12.3024 14.5731 12.419 14.3941 12.4806L13.5267 12.7637C13.3488 12.8221 13.1872 12.9215 13.0549 13.054C12.9226 13.1872 12.8227 13.349 12.763 13.5269L12.484 14.3824C12.4217 14.5638 12.3037 14.7209 12.147 14.8315C11.9967 14.9395 11.8167 14.9983 11.6317 15C11.445 15.0007 11.2627 14.9431 11.1103 14.8353C10.9578 14.7275 10.8429 14.5748 10.7814 14.3985L10.4972 13.5295C10.4393 13.3509 10.34 13.1885 10.2074 13.0556C10.0741 12.9228 9.91191 12.8225 9.73352 12.7626L8.87648 12.4852C8.69476 12.4233 8.53737 12.3053 8.42696 12.1482C8.34582 12.0346 8.29227 11.9037 8.27056 11.7658C8.24885 11.6279 8.25959 11.4868 8.30191 11.3538C8.34424 11.2208 8.41698 11.0995 8.51438 10.9995C8.61178 10.8995 8.73114 10.8236 8.863 10.7778L9.73456 10.4936C9.90895 10.4322 10.0669 10.3315 10.1963 10.1993C10.3256 10.0672 10.4229 9.9071 10.4806 9.73142L10.758 8.87588C10.8021 8.74202 10.8771 8.62042 10.9768 8.52091C11.0766 8.4214 11.1984 8.34676 11.3324 8.30305C11.4664 8.25933 11.6087 8.24776 11.748 8.26927C11.8873 8.29077 12.0195 8.34476 12.1341 8.42685C12.287 8.53418 12.4021 8.68714 12.4628 8.86343L12.7459 9.73246ZM13.1829 11.4778C12.8528 11.3681 12.5526 11.1831 12.3062 10.9376C12.0597 10.692 11.8737 10.3925 11.7628 10.0627L11.7613 10.0581L11.6125 9.60179L11.4647 10.0581C11.3558 10.3847 11.1744 10.6824 10.9338 10.9287L10.9312 10.9312C10.6922 11.1743 10.4006 11.3593 10.0788 11.4721L10.0674 11.4757L9.5982 11.6286L10.0581 11.7775L10.0633 11.7795C10.393 11.89 10.6927 12.0751 10.9395 12.3209L10.9405 12.3219C11.1894 12.5708 11.375 12.8741 11.4834 13.2085L11.4839 13.2106L11.6301 13.6565L11.7784 13.2013L11.7799 13.1971C11.8904 12.8686 12.0749 12.5698 12.3191 12.324C12.5673 12.0746 12.8709 11.8875 13.2052 11.778L13.6542 11.6312L13.1829 11.4778Z" stroke="#2E42FF" stroke-width="0.2"/>
</g>
<defs>
<clipPath id="clip0_605_14160">
<rect width="20" height="20" fill="white"/>
</clipPath>
</defs>
</svg>
