<svg xmlns="http://www.w3.org/2000/svg" width="16" height="16" viewBox="0 0 16 16" fill="none">
<g clip-path="url(#clip0_142_26386)">
<path d="M14.2222 0H1.77778C1.30628 0 0.854097 0.187301 0.520699 0.520699C0.187301 0.854097 0 1.30628 0 1.77778V14.2222C0 14.6937 0.187301 15.1459 0.520699 15.4793C0.854097 15.8127 1.30628 16 1.77778 16H14.2222C14.6937 16 15.1459 15.8127 15.4793 15.4793C15.8127 15.1459 16 14.6937 16 14.2222V1.77778C16 1.30628 15.8127 0.854097 15.4793 0.520699C15.1459 0.187301 14.6937 0 14.2222 0ZM6.22222 12.4444L1.77778 8L3.03111 6.74667L6.22222 9.92889L12.9689 3.18222L14.2222 4.44444L6.22222 12.4444Z" fill="#02D25A"/>
</g>
<defs>
<clipPath id="clip0_142_26386">
<rect width="16" height="16" rx="2" fill="white"/>
</clipPath>
</defs>
</svg>