<svg width="340" height="350" viewBox="0 0 340 350" fill="none" xmlns="http://www.w3.org/2000/svg">
<g clip-path="url(#clip0_54_174960)">
<g filter="url(#filter0_d_54_174960)">
<mask id="mask0_54_174960" style="mask-type:luminance" maskUnits="userSpaceOnUse" x="0" y="0" width="340" height="350">
<path d="M330.696 0.849609H9.30341C4.63235 0.849609 0.845703 4.65302 0.845703 9.34476V340.655C0.845703 345.347 4.63235 349.151 9.30341 349.151H330.696C335.367 349.151 339.154 345.347 339.154 340.655V9.34476C339.154 4.65302 335.367 0.849609 330.696 0.849609Z" fill="white"/>
</mask>
<g mask="url(#mask0_54_174960)">
<path d="M331.5 0H8.5C3.80558 0 0 3.82196 0 8.53659V341.463C0 346.178 3.80558 350 8.5 350H331.5C336.194 350 340 346.178 340 341.463V8.53659C340 3.82196 336.194 0 331.5 0Z" fill="white"/>
<path d="M0.845703 22.5122H339.154" stroke="#CFD6E1"/>
<path d="M11.8405 14.4418C13.2419 14.4418 14.3778 13.3008 14.3778 11.8933C14.3778 10.4857 13.2419 9.34473 11.8405 9.34473C10.4392 9.34473 9.30322 10.4857 9.30322 11.8933C9.30322 13.3008 10.4392 14.4418 11.8405 14.4418Z" fill="#EE5687"/>
<path d="M19.4528 14.4418C20.8542 14.4418 21.9902 13.3008 21.9902 11.8933C21.9902 10.4857 20.8542 9.34473 19.4528 9.34473C18.0515 9.34473 16.9155 10.4857 16.9155 11.8933C16.9155 13.3008 18.0515 14.4418 19.4528 14.4418Z" fill="#FF8F3D"/>
<path d="M27.0647 14.4418C28.466 14.4418 29.602 13.3008 29.602 11.8933C29.602 10.4857 28.466 9.34473 27.0647 9.34473C25.6633 9.34473 24.5273 10.4857 24.5273 11.8933C24.5273 13.3008 25.6633 14.4418 27.0647 14.4418Z" fill="#249707"/>
<path d="M25.373 59.4661C31.9125 59.4661 37.2138 54.1413 37.2138 47.5729C37.2138 41.0045 31.9125 35.6797 25.373 35.6797C18.8335 35.6797 13.5322 41.0045 13.5322 47.5729C13.5322 54.1413 18.8335 59.4661 25.373 59.4661Z" fill="#FFE9E9"/>
<path d="M76.9649 45.0244H48.2087C46.8074 45.0244 45.6714 46.1654 45.6714 47.573C45.6714 48.9805 46.8074 50.1215 48.2087 50.1215H76.9649C78.3662 50.1215 79.5022 48.9805 79.5022 47.573C79.5022 46.1654 78.3662 45.0244 76.9649 45.0244Z" fill="#E5E6FA"/>
<path d="M134.478 45.0244H109.95C108.549 45.0244 107.413 46.1654 107.413 47.573C107.413 48.9805 108.549 50.1215 109.95 50.1215H134.478C135.879 50.1215 137.015 48.9805 137.015 47.573C137.015 46.1654 135.879 45.0244 134.478 45.0244Z" fill="#EBEDFF"/>
<path d="M172.537 45.0244H148.01C146.609 45.0244 145.473 46.1654 145.473 47.573C145.473 48.9805 146.609 50.1215 148.01 50.1215H172.537C173.939 50.1215 175.075 48.9805 175.075 47.573C175.075 46.1654 173.939 45.0244 172.537 45.0244Z" fill="#EBEDFF"/>
<path d="M210.597 45.0244H186.07C184.668 45.0244 183.532 46.1654 183.532 47.573C183.532 48.9805 184.668 50.1215 186.07 50.1215H210.597C211.998 50.1215 213.134 48.9805 213.134 47.573C213.134 46.1654 211.998 45.0244 210.597 45.0244Z" fill="#EBEDFF"/>
<path d="M248.656 45.0244H224.129C222.728 45.0244 221.592 46.1654 221.592 47.573C221.592 48.9805 222.728 50.1215 224.129 50.1215H248.656C250.058 50.1215 251.194 48.9805 251.194 47.573C251.194 46.1654 250.058 45.0244 248.656 45.0244Z" fill="#EBEDFF"/>
<path d="M318.01 38.2283H288.408C283.27 38.2283 279.104 42.412 279.104 47.5729C279.104 52.7338 283.27 56.9176 288.408 56.9176H318.01C323.148 56.9176 327.313 52.7338 327.313 47.5729C327.313 42.412 323.148 38.2283 318.01 38.2283Z" fill="#C5CAFF"/>
<path d="M319.701 72.2087H20.2984C16.5615 72.2087 13.5322 75.2515 13.5322 79.0049V175.85C13.5322 179.603 16.5615 182.646 20.2984 182.646H319.701C323.438 182.646 326.468 179.603 326.468 175.85V79.0049C326.468 75.2515 323.438 72.2087 319.701 72.2087Z" fill="#EBEDFF"/>
<path d="M65.97 152.913H34.6765C30.0054 152.913 26.2188 156.716 26.2188 161.408C26.2188 166.099 30.0054 169.903 34.6765 169.903H65.97C70.6411 169.903 74.4277 166.099 74.4277 161.408C74.4277 156.716 70.6411 152.913 65.97 152.913Z" fill="#C5CAFF"/>
<path d="M116.716 84.9517H28.7561C27.3547 84.9517 26.2188 86.0927 26.2188 87.5002V101.942C26.2188 103.349 27.3547 104.49 28.7561 104.49H116.716C118.118 104.49 119.254 103.349 119.254 101.942V87.5002C119.254 86.0927 118.118 84.9517 116.716 84.9517Z" fill="#DFE2FF"/>
<path d="M142.089 117.233H28.7561C27.3547 117.233 26.2188 118.374 26.2188 119.782C26.2188 121.189 27.3547 122.33 28.7561 122.33H142.089C143.491 122.33 144.627 121.189 144.627 119.782C144.627 118.374 143.491 117.233 142.089 117.233Z" fill="#DADEFF"/>
<path d="M142.089 126.578H28.7561C27.3547 126.578 26.2188 127.719 26.2188 129.126C26.2188 130.534 27.3547 131.675 28.7561 131.675H142.089C143.491 131.675 144.627 130.534 144.627 129.126C144.627 127.719 143.491 126.578 142.089 126.578Z" fill="#DADEFF"/>
<path d="M99.8008 135.922H28.7561C27.3547 135.922 26.2188 137.063 26.2188 138.471C26.2188 139.878 27.3547 141.019 28.7561 141.019H99.8008C101.202 141.019 102.338 139.878 102.338 138.471C102.338 137.063 101.202 135.922 99.8008 135.922Z" fill="#DADEFF"/>
<path d="M307.015 84.9517H185.224C181.487 84.9517 178.458 87.9944 178.458 91.7478V163.107C178.458 166.86 181.487 169.903 185.224 169.903H307.015C310.752 169.903 313.781 166.86 313.781 163.107V91.7478C313.781 87.9944 310.752 84.9517 307.015 84.9517Z" fill="#DFE2FF"/>
<path d="M222.438 199.636H117.562C114.759 199.636 112.487 201.918 112.487 204.733C112.487 207.548 114.759 209.83 117.562 209.83H222.438C225.24 209.83 227.512 207.548 227.512 204.733C227.512 201.918 225.24 199.636 222.438 199.636Z" fill="#E2E5FF"/>
<path d="M243.582 218.325H96.4177C95.0164 218.325 93.8804 219.466 93.8804 220.874C93.8804 222.281 95.0164 223.422 96.4177 223.422H243.582C244.983 223.422 246.119 222.281 246.119 220.874C246.119 219.466 244.983 218.325 243.582 218.325Z" fill="#E2E5FF"/>
<path d="M110.796 234.041H34.6766C32.5746 234.041 30.8706 235.753 30.8706 237.864V321.966C30.8706 324.077 32.5746 325.789 34.6766 325.789H110.796C112.898 325.789 114.602 324.077 114.602 321.966V237.864C114.602 235.753 112.898 234.041 110.796 234.041Z" fill="white" stroke="#FFDDD3"/>
<path d="M103.184 242.112H42.2884C40.4199 242.112 38.9053 243.633 38.9053 245.51V281.189C38.9053 283.066 40.4199 284.588 42.2884 284.588H103.184C105.052 284.588 106.567 283.066 106.567 281.189V245.51C106.567 243.633 105.052 242.112 103.184 242.112Z" fill="#FFF4E8"/>
<path d="M91.3431 290.534H41.4426C40.0413 290.534 38.9053 291.675 38.9053 293.083C38.9053 294.49 40.0413 295.631 41.4426 295.631H91.3431C92.7444 295.631 93.8804 294.49 93.8804 293.083C93.8804 291.675 92.7444 290.534 91.3431 290.534Z" fill="#FFF4E8"/>
<path d="M70.1988 299.879H41.4426C40.0413 299.879 38.9053 301.02 38.9053 302.427C38.9053 303.835 40.0413 304.976 41.4426 304.976H70.1988C71.6001 304.976 72.7361 303.835 72.7361 302.427C72.7361 301.02 71.6001 299.879 70.1988 299.879Z" fill="#FFF4E8"/>
<path d="M68.5073 309.223H43.1341C40.7986 309.223 38.9053 311.125 38.9053 313.471C38.9053 315.817 40.7986 317.719 43.1341 317.719H68.5073C70.8428 317.719 72.7361 315.817 72.7361 313.471C72.7361 311.125 70.8428 309.223 68.5073 309.223Z" fill="#FED4A5"/>
<path d="M208.06 234.041H131.94C129.838 234.041 128.134 235.753 128.134 237.864V321.966C128.134 324.077 129.838 325.789 131.94 325.789H208.06C210.162 325.789 211.866 324.077 211.866 321.966V237.864C211.866 235.753 210.162 234.041 208.06 234.041Z" fill="white" stroke="#B1FED1"/>
<path d="M200.448 242.112H139.552C137.684 242.112 136.169 243.633 136.169 245.51V281.189C136.169 283.066 137.684 284.588 139.552 284.588H200.448C202.316 284.588 203.831 283.066 203.831 281.189V245.51C203.831 243.633 202.316 242.112 200.448 242.112Z" fill="#E5FEF0"/>
<path d="M188.607 290.534H138.706C137.305 290.534 136.169 291.675 136.169 293.083C136.169 294.49 137.305 295.631 138.706 295.631H188.607C190.008 295.631 191.144 294.49 191.144 293.083C191.144 291.675 190.008 290.534 188.607 290.534Z" fill="#E5FEF0"/>
<path d="M167.462 299.879H138.706C137.305 299.879 136.169 301.02 136.169 302.427C136.169 303.835 137.305 304.976 138.706 304.976H167.462C168.864 304.976 170 303.835 170 302.427C170 301.02 168.864 299.879 167.462 299.879Z" fill="#E5FEF0"/>
<path d="M165.771 309.223H140.398C138.062 309.223 136.169 311.125 136.169 313.471C136.169 315.817 138.062 317.719 140.398 317.719H165.771C168.106 317.719 170 315.817 170 313.471C170 311.125 168.106 309.223 165.771 309.223Z" fill="#ABEFC8"/>
<path d="M305.323 234.041H229.204C227.102 234.041 225.398 235.753 225.398 237.864V321.966C225.398 324.077 227.102 325.789 229.204 325.789H305.323C307.425 325.789 309.129 324.077 309.129 321.966V237.864C309.129 235.753 307.425 234.041 305.323 234.041Z" fill="white" stroke="#F5BFFF"/>
<path d="M297.711 242.112H236.816C234.947 242.112 233.433 243.633 233.433 245.51V281.189C233.433 283.066 234.947 284.588 236.816 284.588H297.711C299.58 284.588 301.094 283.066 301.094 281.189V245.51C301.094 243.633 299.58 242.112 297.711 242.112Z" fill="#FBE2FF"/>
<path d="M285.87 290.534H235.97C234.569 290.534 233.433 291.675 233.433 293.083C233.433 294.49 234.569 295.631 235.97 295.631H285.87C287.272 295.631 288.408 294.49 288.408 293.083C288.408 291.675 287.272 290.534 285.87 290.534Z" fill="#FBE2FF"/>
<path d="M264.726 299.879H235.97C234.569 299.879 233.433 301.02 233.433 302.427C233.433 303.835 234.569 304.976 235.97 304.976H264.726C266.127 304.976 267.263 303.835 267.263 302.427C267.263 301.02 266.127 299.879 264.726 299.879Z" fill="#FBE2FF"/>
<path d="M263.035 309.223H237.661C235.326 309.223 233.433 311.125 233.433 313.471C233.433 315.817 235.326 317.719 237.661 317.719H263.035C265.37 317.719 267.263 315.817 267.263 313.471C267.263 311.125 265.37 309.223 263.035 309.223Z" fill="#F09EFF"/>
</g>
<path d="M330.696 0.424805H9.30345C4.39883 0.424805 0.422852 4.41838 0.422852 9.34471V340.655C0.422852 345.582 4.39883 349.575 9.30345 349.575H330.696C335.601 349.575 339.577 345.582 339.577 340.655V9.34471C339.577 4.41838 335.601 0.424805 330.696 0.424805Z" stroke="url(#paint0_linear_54_174960)"/>
</g>
</g>
<defs>
<filter id="filter0_d_54_174960" x="-20.0771" y="-16.0752" width="380.154" height="390.15" filterUnits="userSpaceOnUse" color-interpolation-filters="sRGB">
<feFlood flood-opacity="0" result="BackgroundImageFix"/>
<feColorMatrix in="SourceAlpha" type="matrix" values="0 0 0 0 0 0 0 0 0 0 0 0 0 0 0 0 0 0 127 0" result="hardAlpha"/>
<feOffset dy="4"/>
<feGaussianBlur stdDeviation="10"/>
<feComposite in2="hardAlpha" operator="out"/>
<feColorMatrix type="matrix" values="0 0 0 0 0 0 0 0 0 0 0 0 0 0 0 0 0 0 0.1 0"/>
<feBlend mode="normal" in2="BackgroundImageFix" result="effect1_dropShadow_54_174960"/>
<feBlend mode="normal" in="SourceGraphic" in2="effect1_dropShadow_54_174960" result="shape"/>
</filter>
<linearGradient id="paint0_linear_54_174960" x1="-76.9652" y1="-158.859" x2="439.153" y2="473.922" gradientUnits="userSpaceOnUse">
<stop stop-color="#C13EFF"/>
<stop offset="1" stop-color="#2E42FF"/>
</linearGradient>
<clipPath id="clip0_54_174960">
<rect width="340" height="350" fill="white"/>
</clipPath>
</defs>
</svg>
